{
	"asset":{
		"generator":"Khronos glTF Blender I/O v4.0.44",
		"version":"2.0"
	},
	"scene":0,
	"scenes":[
		{
			"name":"Scene",
			"nodes":[
				0
			]
		}
	],
	"nodes":[
		{
			"mesh":0,
			"name":"Gun_SMG_Red"
		}
	],
	"materials":[
		{
			"doubleSided":true,
			"name":"MI_Guns_Batch1_Red",
			"normalTexture":{
				"index":0
			},
			"pbrMetallicRoughness":{
				"baseColorTexture":{
					"index":1
				},
				"metallicRoughnessTexture":{
					"index":2
				}
			}
		}
	],
	"meshes":[
		{
			"name":"Cube.017",
			"primitives":[
				{
					"attributes":{
						"POSITION":0,
						"NORMAL":1,
						"TEXCOORD_0":2
					},
					"indices":3,
					"material":0
				}
			]
		}
	],
	"textures":[
		{
			"sampler":0,
			"source":0
		},
		{
			"sampler":0,
			"source":1
		},
		{
			"sampler":0,
			"source":2
		}
	],
	"images":[
		{
			"mimeType":"image/png",
			"name":"T_Guns_Batch1_Red_Normal",
			"uri":"T_Guns_Batch1_Red_Normal.png"
		},
		{
			"mimeType":"image/png",
			"name":"T_Guns_Batch1_Red_BaseColor",
			"uri":"T_Guns_Batch1_Red_BaseColor.png"
		},
		{
			"mimeType":"image/png",
			"name":"T_Guns_Batch1_Red_ORM",
			"uri":"T_Guns_Batch1_Red_ORM.png"
		}
	],
	"accessors":[
		{
			"bufferView":0,
			"componentType":5126,
			"count":4257,
			"max":[
				0.07594515383243561,
				0.19879065454006195,
				0.056422602385282516
			],
			"min":[
				-0.4068831205368042,
				-0.16064445674419403,
				-0.03379543870687485
			],
			"type":"VEC3"
		},
		{
			"bufferView":1,
			"componentType":5126,
			"count":4257,
			"type":"VEC3"
		},
		{
			"bufferView":2,
			"componentType":5126,
			"count":4257,
			"type":"VEC2"
		},
		{
			"bufferView":3,
			"componentType":5123,
			"count":11820,
			"type":"SCALAR"
		}
	],
	"bufferViews":[
		{
			"buffer":0,
			"byteLength":51084,
			"byteOffset":0,
			"target":34962
		},
		{
			"buffer":0,
			"byteLength":51084,
			"byteOffset":51084,
			"target":34962
		},
		{
			"buffer":0,
			"byteLength":34056,
			"byteOffset":102168,
			"target":34962
		},
		{
			"buffer":0,
			"byteLength":23640,
			"byteOffset":136224,
			"target":34963
		}
	],
	"samplers":[
		{
			"magFilter":9729,
			"minFilter":9987
		}
	],
	"buffers":[
		{
			"byteLength":159864,
			"uri":"Gun_SMG_Red.bin"
		}
	]
}
