{
	"asset":{
		"generator":"Khronos glTF Blender I/O v4.0.44",
		"version":"2.0"
	},
	"extensionsUsed":[
		"KHR_materials_specular",
		"KHR_materials_ior"
	],
	"scene":0,
	"scenes":[
		{
			"name":"Scene",
			"nodes":[
				0
			]
		}
	],
	"nodes":[
		{
			"mesh":0,
			"name":"Prop_Screen"
		}
	],
	"materials":[
		{
			"doubleSided":true,
			"extensions":{
				"KHR_materials_specular":{
					"specularFactor":0
				},
				"KHR_materials_ior":{
					"ior":1.4500000476837158
				}
			},
			"name":"MI_Trim_01",
			"normalTexture":{
				"index":0
			},
			"pbrMetallicRoughness":{
				"baseColorTexture":{
					"index":1
				},
				"metallicRoughnessTexture":{
					"index":2
				}
			}
		},
		{
			"doubleSided":true,
			"name":"M_Black",
			"pbrMetallicRoughness":{
				"baseColorFactor":[
					0.0057737254537642,
					0.0057737254537642,
					0.0057737254537642,
					1
				],
				"metallicFactor":0
			}
		},
		{
			"alphaMode":"BLEND",
			"emissiveFactor":[
				1,
				1,
				1
			],
			"name":"MI_StatScreens_1",
			"pbrMetallicRoughness":{
				"baseColorTexture":{
					"index":3
				},
				"metallicFactor":0
			}
		},
		{
			"doubleSided":true,
			"name":"MI_Trim_03_Dark",
			"normalTexture":{
				"index":4
			},
			"pbrMetallicRoughness":{
				"baseColorTexture":{
					"index":5
				},
				"metallicRoughnessTexture":{
					"index":6
				}
			}
		}
	],
	"meshes":[
		{
			"name":"Plane.008",
			"primitives":[
				{
					"attributes":{
						"COLOR_0":0,
						"POSITION":1,
						"NORMAL":2,
						"TEXCOORD_0":3
					},
					"indices":4,
					"material":0
				},
				{
					"attributes":{
						"COLOR_0":5,
						"POSITION":6,
						"NORMAL":7,
						"TEXCOORD_0":8
					},
					"indices":9,
					"material":1
				},
				{
					"attributes":{
						"COLOR_0":10,
						"POSITION":11,
						"NORMAL":12,
						"TEXCOORD_0":13
					},
					"indices":14,
					"material":2
				},
				{
					"attributes":{
						"COLOR_0":15,
						"POSITION":16,
						"NORMAL":17,
						"TEXCOORD_0":18
					},
					"indices":19,
					"material":3
				}
			]
		}
	],
	"textures":[
		{
			"sampler":0,
			"source":0
		},
		{
			"sampler":0,
			"source":1
		},
		{
			"sampler":0,
			"source":2
		},
		{
			"sampler":0,
			"source":3
		},
		{
			"sampler":0,
			"source":4
		},
		{
			"sampler":0,
			"source":5
		},
		{
			"sampler":0,
			"source":6
		}
	],
	"images":[
		{
			"mimeType":"image/png",
			"name":"T_Trim_01_Normal",
			"uri":"T_Trim_01_Normal.png"
		},
		{
			"mimeType":"image/png",
			"name":"T_Trim_01_BaseColor_Red",
			"uri":"T_Trim_01_BaseColor_Red.png"
		},
		{
			"mimeType":"image/png",
			"name":"T_Trim_01_ORM",
			"uri":"T_Trim_01_ORM.png"
		},
		{
			"mimeType":"image/png",
			"name":"T_Screens1",
			"uri":"T_Screens1.png"
		},
		{
			"mimeType":"image/png",
			"name":"T_Trim_03_Normal",
			"uri":"T_Trim_03_Normal.png"
		},
		{
			"mimeType":"image/png",
			"name":"T_Trim_03_Cables",
			"uri":"T_Trim_03_Cables.png"
		},
		{
			"mimeType":"image/png",
			"name":"T_Trim_03_ORM",
			"uri":"T_Trim_03_ORM.png"
		}
	],
	"accessors":[
		{
			"bufferView":0,
			"componentType":5123,
			"count":242,
			"normalized":true,
			"type":"VEC4"
		},
		{
			"bufferView":1,
			"componentType":5126,
			"count":242,
			"max":[
				0.37167656421661377,
				0.5366256237030029,
				0.18742415308952332
			],
			"min":[
				-0.371675968170166,
				-0.002449419116601348,
				-0.17048904299736023
			],
			"type":"VEC3"
		},
		{
			"bufferView":2,
			"componentType":5126,
			"count":242,
			"type":"VEC3"
		},
		{
			"bufferView":3,
			"componentType":5126,
			"count":242,
			"type":"VEC2"
		},
		{
			"bufferView":4,
			"componentType":5123,
			"count":762,
			"type":"SCALAR"
		},
		{
			"bufferView":5,
			"componentType":5123,
			"count":32,
			"normalized":true,
			"type":"VEC4"
		},
		{
			"bufferView":6,
			"componentType":5126,
			"count":32,
			"max":[
				0.3487086296081543,
				0.5366256237030029,
				0.18742415308952332
			],
			"min":[
				-0.34870803356170654,
				0.2135533094406128,
				-0.13564851880073547
			],
			"type":"VEC3"
		},
		{
			"bufferView":7,
			"componentType":5126,
			"count":32,
			"type":"VEC3"
		},
		{
			"bufferView":8,
			"componentType":5126,
			"count":32,
			"type":"VEC2"
		},
		{
			"bufferView":9,
			"componentType":5123,
			"count":90,
			"type":"SCALAR"
		},
		{
			"bufferView":10,
			"componentType":5123,
			"count":15,
			"normalized":true,
			"type":"VEC4"
		},
		{
			"bufferView":11,
			"componentType":5126,
			"count":15,
			"max":[
				0.3200415372848511,
				0.5695137977600098,
				0.2166609764099121
			],
			"min":[
				-0.32004010677337646,
				0.24550294876098633,
				-0.10807187110185623
			],
			"type":"VEC3"
		},
		{
			"bufferView":12,
			"componentType":5126,
			"count":15,
			"type":"VEC3"
		},
		{
			"bufferView":13,
			"componentType":5126,
			"count":15,
			"type":"VEC2"
		},
		{
			"bufferView":14,
			"componentType":5123,
			"count":33,
			"type":"SCALAR"
		},
		{
			"bufferView":15,
			"componentType":5123,
			"count":75,
			"normalized":true,
			"type":"VEC4"
		},
		{
			"bufferView":16,
			"componentType":5126,
			"count":75,
			"max":[
				0.03177015483379364,
				0.048202257603406906,
				0.14454205334186554
			],
			"min":[
				-0.031770143657922745,
				-0.0034003048203885555,
				-0.14454197883605957
			],
			"type":"VEC3"
		},
		{
			"bufferView":17,
			"componentType":5126,
			"count":75,
			"type":"VEC3"
		},
		{
			"bufferView":18,
			"componentType":5126,
			"count":75,
			"type":"VEC2"
		},
		{
			"bufferView":19,
			"componentType":5123,
			"count":246,
			"type":"SCALAR"
		}
	],
	"bufferViews":[
		{
			"buffer":0,
			"byteLength":1936,
			"byteOffset":0,
			"target":34962
		},
		{
			"buffer":0,
			"byteLength":2904,
			"byteOffset":1936,
			"target":34962
		},
		{
			"buffer":0,
			"byteLength":2904,
			"byteOffset":4840,
			"target":34962
		},
		{
			"buffer":0,
			"byteLength":1936,
			"byteOffset":7744,
			"target":34962
		},
		{
			"buffer":0,
			"byteLength":1524,
			"byteOffset":9680,
			"target":34963
		},
		{
			"buffer":0,
			"byteLength":256,
			"byteOffset":11204,
			"target":34962
		},
		{
			"buffer":0,
			"byteLength":384,
			"byteOffset":11460,
			"target":34962
		},
		{
			"buffer":0,
			"byteLength":384,
			"byteOffset":11844,
			"target":34962
		},
		{
			"buffer":0,
			"byteLength":256,
			"byteOffset":12228,
			"target":34962
		},
		{
			"buffer":0,
			"byteLength":180,
			"byteOffset":12484,
			"target":34963
		},
		{
			"buffer":0,
			"byteLength":120,
			"byteOffset":12664,
			"target":34962
		},
		{
			"buffer":0,
			"byteLength":180,
			"byteOffset":12784,
			"target":34962
		},
		{
			"buffer":0,
			"byteLength":180,
			"byteOffset":12964,
			"target":34962
		},
		{
			"buffer":0,
			"byteLength":120,
			"byteOffset":13144,
			"target":34962
		},
		{
			"buffer":0,
			"byteLength":66,
			"byteOffset":13264,
			"target":34963
		},
		{
			"buffer":0,
			"byteLength":600,
			"byteOffset":13332,
			"target":34962
		},
		{
			"buffer":0,
			"byteLength":900,
			"byteOffset":13932,
			"target":34962
		},
		{
			"buffer":0,
			"byteLength":900,
			"byteOffset":14832,
			"target":34962
		},
		{
			"buffer":0,
			"byteLength":600,
			"byteOffset":15732,
			"target":34962
		},
		{
			"buffer":0,
			"byteLength":492,
			"byteOffset":16332,
			"target":34963
		}
	],
	"samplers":[
		{
			"magFilter":9729,
			"minFilter":9987
		}
	],
	"buffers":[
		{
			"byteLength":16824,
			"uri":"Prop_Screen.bin"
		}
	]
}
