{
	"asset":{
		"generator":"Khronos glTF Blender I/O v4.0.44",
		"version":"2.0"
	},
	"scene":0,
	"scenes":[
		{
			"name":"Scene",
			"nodes":[
				0
			]
		}
	],
	"nodes":[
		{
			"mesh":0,
			"name":"Prop_HologramHexagonPlanet"
		}
	],
	"materials":[
		{
			"doubleSided":true,
			"name":"MI_HologramPlanet",
			"pbrMetallicRoughness":{
				"metallicFactor":0,
				"roughnessFactor":0.5
			}
		}
	],
	"meshes":[
		{
			"name":"Icosphere.001",
			"primitives":[
				{
					"attributes":{
						"COLOR_0":0,
						"POSITION":1,
						"NORMAL":2,
						"TEXCOORD_0":3,
						"TEXCOORD_1":4
					},
					"indices":5,
					"material":0
				}
			]
		}
	],
	"accessors":[
		{
			"bufferView":0,
			"componentType":5123,
			"count":960,
			"normalized":true,
			"type":"VEC4"
		},
		{
			"bufferView":1,
			"componentType":5126,
			"count":960,
			"max":[
				0.7125399708747864,
				0.7180793285369873,
				0.710883378982544
			],
			"min":[
				-0.7125399708747864,
				-0.7180793285369873,
				-0.7108834385871887
			],
			"type":"VEC3"
		},
		{
			"bufferView":2,
			"componentType":5126,
			"count":960,
			"type":"VEC3"
		},
		{
			"bufferView":3,
			"componentType":5126,
			"count":960,
			"type":"VEC2"
		},
		{
			"bufferView":4,
			"componentType":5126,
			"count":960,
			"type":"VEC2"
		},
		{
			"bufferView":5,
			"componentType":5123,
			"count":1908,
			"type":"SCALAR"
		}
	],
	"bufferViews":[
		{
			"buffer":0,
			"byteLength":7680,
			"byteOffset":0,
			"target":34962
		},
		{
			"buffer":0,
			"byteLength":11520,
			"byteOffset":7680,
			"target":34962
		},
		{
			"buffer":0,
			"byteLength":11520,
			"byteOffset":19200,
			"target":34962
		},
		{
			"buffer":0,
			"byteLength":7680,
			"byteOffset":30720,
			"target":34962
		},
		{
			"buffer":0,
			"byteLength":7680,
			"byteOffset":38400,
			"target":34962
		},
		{
			"buffer":0,
			"byteLength":3816,
			"byteOffset":46080,
			"target":34963
		}
	],
	"buffers":[
		{
			"byteLength":49896,
			"uri":"Prop_HologramHexagonPlanet.bin"
		}
	]
}
