{
	"asset":{
		"generator":"Khronos glTF Blender I/O v4.0.44",
		"version":"2.0"
	},
	"scene":0,
	"scenes":[
		{
			"name":"Scene",
			"nodes":[
				0
			]
		}
	],
	"nodes":[
		{
			"mesh":0,
			"name":"Prop_Desk_Large"
		}
	],
	"materials":[
		{
			"doubleSided":true,
			"name":"MI_Trim_03",
			"normalTexture":{
				"index":0
			},
			"pbrMetallicRoughness":{
				"baseColorTexture":{
					"index":1
				},
				"metallicRoughnessTexture":{
					"index":2
				}
			}
		},
		{
			"doubleSided":true,
			"name":"MI_HologramDesk",
			"pbrMetallicRoughness":{
				"baseColorFactor":[
					0.800000011920929,
					0.800000011920929,
					0.800000011920929,
					1
				],
				"metallicFactor":0,
				"roughnessFactor":0.5
			}
		},
		{
			"doubleSided":true,
			"name":"MI_Trim_03_Dark",
			"normalTexture":{
				"index":3
			},
			"pbrMetallicRoughness":{
				"baseColorTexture":{
					"index":4
				},
				"metallicRoughnessTexture":{
					"index":5
				}
			}
		}
	],
	"meshes":[
		{
			"name":"Cube.074",
			"primitives":[
				{
					"attributes":{
						"COLOR_0":0,
						"POSITION":1,
						"NORMAL":2,
						"TEXCOORD_0":3
					},
					"indices":4,
					"material":0
				},
				{
					"attributes":{
						"COLOR_0":5,
						"POSITION":6,
						"NORMAL":7,
						"TEXCOORD_0":8
					},
					"indices":9,
					"material":1
				},
				{
					"attributes":{
						"COLOR_0":10,
						"POSITION":11,
						"NORMAL":12,
						"TEXCOORD_0":13
					},
					"indices":14,
					"material":2
				}
			]
		}
	],
	"textures":[
		{
			"sampler":0,
			"source":0
		},
		{
			"sampler":0,
			"source":1
		},
		{
			"sampler":0,
			"source":2
		},
		{
			"sampler":0,
			"source":0
		},
		{
			"sampler":0,
			"source":3
		},
		{
			"sampler":0,
			"source":2
		}
	],
	"images":[
		{
			"mimeType":"image/png",
			"name":"T_Trim_03_Normal",
			"uri":"T_Trim_03_Normal.png"
		},
		{
			"mimeType":"image/png",
			"name":"T_Trim_03_BaseColor",
			"uri":"T_Trim_03_BaseColor.png"
		},
		{
			"mimeType":"image/png",
			"name":"T_Trim_03_ORM",
			"uri":"T_Trim_03_ORM.png"
		},
		{
			"mimeType":"image/png",
			"name":"T_Trim_03_Cables",
			"uri":"T_Trim_03_Cables.png"
		}
	],
	"accessors":[
		{
			"bufferView":0,
			"componentType":5123,
			"count":240,
			"normalized":true,
			"type":"VEC4"
		},
		{
			"bufferView":1,
			"componentType":5126,
			"count":240,
			"max":[
				2.0249195098876953,
				1,
				1
			],
			"min":[
				-2.0249195098876953,
				0.137295663356781,
				-1
			],
			"type":"VEC3"
		},
		{
			"bufferView":2,
			"componentType":5126,
			"count":240,
			"type":"VEC3"
		},
		{
			"bufferView":3,
			"componentType":5126,
			"count":240,
			"type":"VEC2"
		},
		{
			"bufferView":4,
			"componentType":5123,
			"count":672,
			"type":"SCALAR"
		},
		{
			"bufferView":5,
			"componentType":5123,
			"count":84,
			"normalized":true,
			"type":"VEC4"
		},
		{
			"bufferView":6,
			"componentType":5126,
			"count":84,
			"max":[
				1.8429487943649292,
				0.9733785390853882,
				0.835919976234436
			],
			"min":[
				-1.8429490327835083,
				0.9733785390853882,
				-0.8312186598777771
			],
			"type":"VEC3"
		},
		{
			"bufferView":7,
			"componentType":5126,
			"count":84,
			"type":"VEC3"
		},
		{
			"bufferView":8,
			"componentType":5126,
			"count":84,
			"type":"VEC2"
		},
		{
			"bufferView":9,
			"componentType":5123,
			"count":246,
			"type":"SCALAR"
		},
		{
			"bufferView":10,
			"componentType":5123,
			"count":202,
			"normalized":true,
			"type":"VEC4"
		},
		{
			"bufferView":11,
			"componentType":5126,
			"count":202,
			"max":[
				2.0249195098876953,
				0.8165731430053711,
				1
			],
			"min":[
				-2.0249195098876953,
				0.004593256860971451,
				-1
			],
			"type":"VEC3"
		},
		{
			"bufferView":12,
			"componentType":5126,
			"count":202,
			"type":"VEC3"
		},
		{
			"bufferView":13,
			"componentType":5126,
			"count":202,
			"type":"VEC2"
		},
		{
			"bufferView":14,
			"componentType":5123,
			"count":582,
			"type":"SCALAR"
		}
	],
	"bufferViews":[
		{
			"buffer":0,
			"byteLength":1920,
			"byteOffset":0,
			"target":34962
		},
		{
			"buffer":0,
			"byteLength":2880,
			"byteOffset":1920,
			"target":34962
		},
		{
			"buffer":0,
			"byteLength":2880,
			"byteOffset":4800,
			"target":34962
		},
		{
			"buffer":0,
			"byteLength":1920,
			"byteOffset":7680,
			"target":34962
		},
		{
			"buffer":0,
			"byteLength":1344,
			"byteOffset":9600,
			"target":34963
		},
		{
			"buffer":0,
			"byteLength":672,
			"byteOffset":10944,
			"target":34962
		},
		{
			"buffer":0,
			"byteLength":1008,
			"byteOffset":11616,
			"target":34962
		},
		{
			"buffer":0,
			"byteLength":1008,
			"byteOffset":12624,
			"target":34962
		},
		{
			"buffer":0,
			"byteLength":672,
			"byteOffset":13632,
			"target":34962
		},
		{
			"buffer":0,
			"byteLength":492,
			"byteOffset":14304,
			"target":34963
		},
		{
			"buffer":0,
			"byteLength":1616,
			"byteOffset":14796,
			"target":34962
		},
		{
			"buffer":0,
			"byteLength":2424,
			"byteOffset":16412,
			"target":34962
		},
		{
			"buffer":0,
			"byteLength":2424,
			"byteOffset":18836,
			"target":34962
		},
		{
			"buffer":0,
			"byteLength":1616,
			"byteOffset":21260,
			"target":34962
		},
		{
			"buffer":0,
			"byteLength":1164,
			"byteOffset":22876,
			"target":34963
		}
	],
	"samplers":[
		{
			"magFilter":9729,
			"minFilter":9987
		}
	],
	"buffers":[
		{
			"byteLength":24040,
			"uri":"Prop_Desk_Large.bin"
		}
	]
}
