{
	"asset":{
		"generator":"Khronos glTF Blender I/O v4.0.44",
		"version":"2.0"
	},
	"scene":0,
	"scenes":[
		{
			"name":"Scene",
			"nodes":[
				0
			]
		}
	],
	"nodes":[
		{
			"mesh":0,
			"name":"Prop_HologramMap2"
		}
	],
	"materials":[
		{
			"doubleSided":true,
			"name":"MI_Hologram",
			"pbrMetallicRoughness":{
				"baseColorFactor":[
					0.800000011920929,
					0.800000011920929,
					0.800000011920929,
					1
				],
				"metallicFactor":0,
				"roughnessFactor":0.5
			}
		}
	],
	"meshes":[
		{
			"name":"Cube.087",
			"primitives":[
				{
					"attributes":{
						"COLOR_0":0,
						"POSITION":1,
						"NORMAL":2,
						"TEXCOORD_0":3
					},
					"indices":4,
					"material":0
				}
			]
		}
	],
	"accessors":[
		{
			"bufferView":0,
			"componentType":5123,
			"count":3191,
			"normalized":true,
			"type":"VEC4"
		},
		{
			"bufferView":1,
			"componentType":5126,
			"count":3191,
			"max":[
				1.8053832054138184,
				1.117635726928711,
				0.793788731098175
			],
			"min":[
				-1.7994012832641602,
				0.014893047511577606,
				-0.7879619002342224
			],
			"type":"VEC3"
		},
		{
			"bufferView":2,
			"componentType":5126,
			"count":3191,
			"type":"VEC3"
		},
		{
			"bufferView":3,
			"componentType":5126,
			"count":3191,
			"type":"VEC2"
		},
		{
			"bufferView":4,
			"componentType":5123,
			"count":18066,
			"type":"SCALAR"
		}
	],
	"bufferViews":[
		{
			"buffer":0,
			"byteLength":25528,
			"byteOffset":0,
			"target":34962
		},
		{
			"buffer":0,
			"byteLength":38292,
			"byteOffset":25528,
			"target":34962
		},
		{
			"buffer":0,
			"byteLength":38292,
			"byteOffset":63820,
			"target":34962
		},
		{
			"buffer":0,
			"byteLength":25528,
			"byteOffset":102112,
			"target":34962
		},
		{
			"buffer":0,
			"byteLength":36132,
			"byteOffset":127640,
			"target":34963
		}
	],
	"buffers":[
		{
			"byteLength":163772,
			"uri":"Prop_HologramMap2.bin"
		}
	]
}
