{
	"asset":{
		"generator":"Khronos glTF Blender I/O v4.0.44",
		"version":"2.0"
	},
	"scene":0,
	"scenes":[
		{
			"name":"Scene",
			"nodes":[
				0
			]
		}
	],
	"nodes":[
		{
			"mesh":0,
			"name":"Prop_GunRack"
		}
	],
	"materials":[
		{
			"doubleSided":true,
			"name":"MI_Props_Batch2",
			"normalTexture":{
				"index":0
			},
			"pbrMetallicRoughness":{
				"baseColorTexture":{
					"index":1
				},
				"metallicRoughnessTexture":{
					"index":2
				}
			}
		}
	],
	"meshes":[
		{
			"name":"Cube.236",
			"primitives":[
				{
					"attributes":{
						"POSITION":0,
						"NORMAL":1,
						"TEXCOORD_0":2
					},
					"indices":3,
					"material":0
				}
			]
		}
	],
	"textures":[
		{
			"sampler":0,
			"source":0
		},
		{
			"sampler":0,
			"source":1
		},
		{
			"sampler":0,
			"source":2
		}
	],
	"images":[
		{
			"mimeType":"image/png",
			"name":"T_Props_Batch2_Normal",
			"uri":"T_Props_Batch2_Normal.png"
		},
		{
			"mimeType":"image/png",
			"name":"T_Props_Batch2_BaseColor",
			"uri":"T_Props_Batch2_BaseColor.png"
		},
		{
			"mimeType":"image/png",
			"name":"T_Props_Batch2_ORM",
			"uri":"T_Props_Batch2_ORM.png"
		}
	],
	"accessors":[
		{
			"bufferView":0,
			"componentType":5126,
			"count":2267,
			"max":[
				0.5820648074150085,
				1.3347994089126587,
				0.5160390138626099
			],
			"min":[
				-0.5820645093917847,
				0.005531992297619581,
				-0.3639205992221832
			],
			"type":"VEC3"
		},
		{
			"bufferView":1,
			"componentType":5126,
			"count":2267,
			"type":"VEC3"
		},
		{
			"bufferView":2,
			"componentType":5126,
			"count":2267,
			"type":"VEC2"
		},
		{
			"bufferView":3,
			"componentType":5123,
			"count":4824,
			"type":"SCALAR"
		}
	],
	"bufferViews":[
		{
			"buffer":0,
			"byteLength":27204,
			"byteOffset":0,
			"target":34962
		},
		{
			"buffer":0,
			"byteLength":27204,
			"byteOffset":27204,
			"target":34962
		},
		{
			"buffer":0,
			"byteLength":18136,
			"byteOffset":54408,
			"target":34962
		},
		{
			"buffer":0,
			"byteLength":9648,
			"byteOffset":72544,
			"target":34963
		}
	],
	"samplers":[
		{
			"magFilter":9729,
			"minFilter":9987
		}
	],
	"buffers":[
		{
			"byteLength":82192,
			"uri":"Prop_GunRack.bin"
		}
	]
}
