{
	"asset":{
		"generator":"Khronos glTF Blender I/O v4.0.44",
		"version":"2.0"
	},
	"scene":0,
	"scenes":[
		{
			"name":"Scene",
			"nodes":[
				0
			]
		}
	],
	"nodes":[
		{
			"mesh":0,
			"name":"Prop_HologramMap1"
		}
	],
	"materials":[
		{
			"doubleSided":true,
			"name":"MI_Hologram",
			"pbrMetallicRoughness":{
				"baseColorFactor":[
					0.800000011920929,
					0.800000011920929,
					0.800000011920929,
					1
				],
				"metallicFactor":0,
				"roughnessFactor":0.5
			}
		}
	],
	"meshes":[
		{
			"name":"Cube.084",
			"primitives":[
				{
					"attributes":{
						"COLOR_0":0,
						"POSITION":1,
						"NORMAL":2,
						"TEXCOORD_0":3
					},
					"indices":4,
					"material":0
				}
			]
		}
	],
	"accessors":[
		{
			"bufferView":0,
			"componentType":5123,
			"count":3192,
			"normalized":true,
			"type":"VEC4"
		},
		{
			"bufferView":1,
			"componentType":5126,
			"count":3192,
			"max":[
				1.805383324623108,
				0.8220378160476685,
				0.7932000160217285
			],
			"min":[
				-1.7994012832641602,
				0.014092002995312214,
				-0.7879137992858887
			],
			"type":"VEC3"
		},
		{
			"bufferView":2,
			"componentType":5126,
			"count":3192,
			"type":"VEC3"
		},
		{
			"bufferView":3,
			"componentType":5126,
			"count":3192,
			"type":"VEC2"
		},
		{
			"bufferView":4,
			"componentType":5123,
			"count":18066,
			"type":"SCALAR"
		}
	],
	"bufferViews":[
		{
			"buffer":0,
			"byteLength":25536,
			"byteOffset":0,
			"target":34962
		},
		{
			"buffer":0,
			"byteLength":38304,
			"byteOffset":25536,
			"target":34962
		},
		{
			"buffer":0,
			"byteLength":38304,
			"byteOffset":63840,
			"target":34962
		},
		{
			"buffer":0,
			"byteLength":25536,
			"byteOffset":102144,
			"target":34962
		},
		{
			"buffer":0,
			"byteLength":36132,
			"byteOffset":127680,
			"target":34963
		}
	],
	"buffers":[
		{
			"byteLength":163812,
			"uri":"Prop_HologramMap1.bin"
		}
	]
}
