{
	"asset":{
		"generator":"Khronos glTF Blender I/O v4.0.44",
		"version":"2.0"
	},
	"extensionsUsed":[
		"KHR_materials_specular",
		"KHR_materials_ior"
	],
	"scene":0,
	"scenes":[
		{
			"name":"Scene",
			"nodes":[
				0
			]
		}
	],
	"nodes":[
		{
			"mesh":0,
			"name":"Prop_CeilingComputer"
		}
	],
	"materials":[
		{
			"doubleSided":true,
			"extensions":{
				"KHR_materials_specular":{
					"specularFactor":0
				},
				"KHR_materials_ior":{
					"ior":1.4500000476837158
				}
			},
			"name":"MI_Trim_01",
			"normalTexture":{
				"index":0
			},
			"pbrMetallicRoughness":{
				"baseColorTexture":{
					"index":1
				},
				"metallicRoughnessTexture":{
					"index":2
				}
			}
		},
		{
			"doubleSided":true,
			"name":"M_Black",
			"pbrMetallicRoughness":{
				"baseColorFactor":[
					0.0057737254537642,
					0.0057737254537642,
					0.0057737254537642,
					1
				],
				"metallicFactor":0
			}
		},
		{
			"doubleSided":true,
			"name":"MI_Trim_03_Dark",
			"normalTexture":{
				"index":3
			},
			"pbrMetallicRoughness":{
				"baseColorTexture":{
					"index":4
				},
				"metallicRoughnessTexture":{
					"index":5
				}
			}
		},
		{
			"alphaMode":"BLEND",
			"emissiveFactor":[
				1,
				1,
				1
			],
			"name":"MI_StatScreens_1",
			"pbrMetallicRoughness":{
				"baseColorTexture":{
					"index":6
				},
				"metallicFactor":0
			}
		},
		{
			"alphaMode":"BLEND",
			"emissiveFactor":[
				1,
				1,
				1
			],
			"name":"MI_StatScreens_2",
			"pbrMetallicRoughness":{
				"baseColorTexture":{
					"index":7
				},
				"metallicFactor":0
			}
		},
		{
			"alphaMode":"BLEND",
			"emissiveFactor":[
				1,
				1,
				1
			],
			"name":"MI_StatScreens_3",
			"pbrMetallicRoughness":{
				"baseColorTexture":{
					"index":8
				},
				"metallicFactor":0
			}
		}
	],
	"meshes":[
		{
			"name":"Plane.004",
			"primitives":[
				{
					"attributes":{
						"COLOR_0":0,
						"POSITION":1,
						"NORMAL":2,
						"TEXCOORD_0":3
					},
					"indices":4,
					"material":0
				},
				{
					"attributes":{
						"COLOR_0":5,
						"POSITION":6,
						"NORMAL":7,
						"TEXCOORD_0":8
					},
					"indices":9,
					"material":1
				},
				{
					"attributes":{
						"COLOR_0":10,
						"POSITION":11,
						"NORMAL":12,
						"TEXCOORD_0":13
					},
					"indices":14,
					"material":2
				},
				{
					"attributes":{
						"COLOR_0":15,
						"POSITION":16,
						"NORMAL":17,
						"TEXCOORD_0":18
					},
					"indices":19,
					"material":3
				},
				{
					"attributes":{
						"COLOR_0":20,
						"POSITION":21,
						"NORMAL":22,
						"TEXCOORD_0":23
					},
					"indices":24,
					"material":4
				},
				{
					"attributes":{
						"COLOR_0":25,
						"POSITION":26,
						"NORMAL":27,
						"TEXCOORD_0":28
					},
					"indices":29,
					"material":5
				}
			]
		}
	],
	"textures":[
		{
			"sampler":0,
			"source":0
		},
		{
			"sampler":0,
			"source":1
		},
		{
			"sampler":0,
			"source":2
		},
		{
			"sampler":0,
			"source":3
		},
		{
			"sampler":0,
			"source":4
		},
		{
			"sampler":0,
			"source":5
		},
		{
			"sampler":0,
			"source":6
		},
		{
			"sampler":0,
			"source":7
		},
		{
			"sampler":0,
			"source":8
		}
	],
	"images":[
		{
			"mimeType":"image/png",
			"name":"T_Trim_01_Normal",
			"uri":"T_Trim_01_Normal.png"
		},
		{
			"mimeType":"image/png",
			"name":"T_Trim_01_BaseColor_Red",
			"uri":"T_Trim_01_BaseColor_Red.png"
		},
		{
			"mimeType":"image/png",
			"name":"T_Trim_01_ORM",
			"uri":"T_Trim_01_ORM.png"
		},
		{
			"mimeType":"image/png",
			"name":"T_Trim_03_Normal",
			"uri":"T_Trim_03_Normal.png"
		},
		{
			"mimeType":"image/png",
			"name":"T_Trim_03_Cables",
			"uri":"T_Trim_03_Cables.png"
		},
		{
			"mimeType":"image/png",
			"name":"T_Trim_03_ORM",
			"uri":"T_Trim_03_ORM.png"
		},
		{
			"mimeType":"image/png",
			"name":"T_Screens1",
			"uri":"T_Screens1.png"
		},
		{
			"mimeType":"image/png",
			"name":"T_Screens2",
			"uri":"T_Screens2.png"
		},
		{
			"mimeType":"image/png",
			"name":"T_Screens3",
			"uri":"T_Screens3.png"
		}
	],
	"accessors":[
		{
			"bufferView":0,
			"componentType":5123,
			"count":987,
			"normalized":true,
			"type":"VEC4"
		},
		{
			"bufferView":1,
			"componentType":5126,
			"count":987,
			"max":[
				1.2179185152053833,
				0,
				0.5335774421691895
			],
			"min":[
				-1.2179185152053833,
				-2.233623504638672,
				-0.2857828140258789
			],
			"type":"VEC3"
		},
		{
			"bufferView":2,
			"componentType":5126,
			"count":987,
			"type":"VEC3"
		},
		{
			"bufferView":3,
			"componentType":5126,
			"count":987,
			"type":"VEC2"
		},
		{
			"bufferView":4,
			"componentType":5123,
			"count":2898,
			"type":"SCALAR"
		},
		{
			"bufferView":5,
			"componentType":5123,
			"count":480,
			"normalized":true,
			"type":"VEC4"
		},
		{
			"bufferView":6,
			"componentType":5126,
			"count":480,
			"max":[
				1.185529112815857,
				-1.5125216245651245,
				0.531073808670044
			],
			"min":[
				-1.185529112815857,
				-2.2311832904815674,
				-0.19126814603805542
			],
			"type":"VEC3"
		},
		{
			"bufferView":7,
			"componentType":5126,
			"count":480,
			"type":"VEC3"
		},
		{
			"bufferView":8,
			"componentType":5126,
			"count":480,
			"type":"VEC2"
		},
		{
			"bufferView":9,
			"componentType":5123,
			"count":1422,
			"type":"SCALAR"
		},
		{
			"bufferView":10,
			"componentType":5123,
			"count":1820,
			"normalized":true,
			"type":"VEC4"
		},
		{
			"bufferView":11,
			"componentType":5126,
			"count":1820,
			"max":[
				1.057677984237671,
				-1.3260284662246704,
				0.20178577303886414
			],
			"min":[
				-1.057677984237671,
				-2.780752420425415,
				-0.3642655611038208
			],
			"type":"VEC3"
		},
		{
			"bufferView":12,
			"componentType":5126,
			"count":1820,
			"type":"VEC3"
		},
		{
			"bufferView":13,
			"componentType":5126,
			"count":1820,
			"type":"VEC2"
		},
		{
			"bufferView":14,
			"componentType":5123,
			"count":9792,
			"type":"SCALAR"
		},
		{
			"bufferView":15,
			"componentType":5123,
			"count":15,
			"normalized":true,
			"type":"VEC4"
		},
		{
			"bufferView":16,
			"componentType":5126,
			"count":15,
			"max":[
				0.5478432774543762,
				-1.5923562049865723,
				0.4637458026409149
			],
			"min":[
				-0.5665490031242371,
				-2.1650943756103516,
				-0.12375099956989288
			],
			"type":"VEC3"
		},
		{
			"bufferView":17,
			"componentType":5126,
			"count":15,
			"type":"VEC3"
		},
		{
			"bufferView":18,
			"componentType":5126,
			"count":15,
			"type":"VEC2"
		},
		{
			"bufferView":19,
			"componentType":5123,
			"count":33,
			"type":"SCALAR"
		},
		{
			"bufferView":20,
			"componentType":5123,
			"count":17,
			"normalized":true,
			"type":"VEC4"
		},
		{
			"bufferView":21,
			"componentType":5126,
			"count":17,
			"max":[
				-0.7218220233917236,
				-1.5748578310012817,
				0.5715547800064087
			],
			"min":[
				-1.1569304466247559,
				-2.280304431915283,
				-0.12950487434864044
			],
			"type":"VEC3"
		},
		{
			"bufferView":22,
			"componentType":5126,
			"count":17,
			"type":"VEC3"
		},
		{
			"bufferView":23,
			"componentType":5126,
			"count":17,
			"type":"VEC2"
		},
		{
			"bufferView":24,
			"componentType":5123,
			"count":33,
			"type":"SCALAR"
		},
		{
			"bufferView":25,
			"componentType":5123,
			"count":17,
			"normalized":true,
			"type":"VEC4"
		},
		{
			"bufferView":26,
			"componentType":5126,
			"count":17,
			"max":[
				1.1569304466247559,
				-1.5748578310012817,
				0.5715547800064087
			],
			"min":[
				0.7218220233917236,
				-2.280304431915283,
				-0.12950487434864044
			],
			"type":"VEC3"
		},
		{
			"bufferView":27,
			"componentType":5126,
			"count":17,
			"type":"VEC3"
		},
		{
			"bufferView":28,
			"componentType":5126,
			"count":17,
			"type":"VEC2"
		},
		{
			"bufferView":29,
			"componentType":5123,
			"count":33,
			"type":"SCALAR"
		}
	],
	"bufferViews":[
		{
			"buffer":0,
			"byteLength":7896,
			"byteOffset":0,
			"target":34962
		},
		{
			"buffer":0,
			"byteLength":11844,
			"byteOffset":7896,
			"target":34962
		},
		{
			"buffer":0,
			"byteLength":11844,
			"byteOffset":19740,
			"target":34962
		},
		{
			"buffer":0,
			"byteLength":7896,
			"byteOffset":31584,
			"target":34962
		},
		{
			"buffer":0,
			"byteLength":5796,
			"byteOffset":39480,
			"target":34963
		},
		{
			"buffer":0,
			"byteLength":3840,
			"byteOffset":45276,
			"target":34962
		},
		{
			"buffer":0,
			"byteLength":5760,
			"byteOffset":49116,
			"target":34962
		},
		{
			"buffer":0,
			"byteLength":5760,
			"byteOffset":54876,
			"target":34962
		},
		{
			"buffer":0,
			"byteLength":3840,
			"byteOffset":60636,
			"target":34962
		},
		{
			"buffer":0,
			"byteLength":2844,
			"byteOffset":64476,
			"target":34963
		},
		{
			"buffer":0,
			"byteLength":14560,
			"byteOffset":67320,
			"target":34962
		},
		{
			"buffer":0,
			"byteLength":21840,
			"byteOffset":81880,
			"target":34962
		},
		{
			"buffer":0,
			"byteLength":21840,
			"byteOffset":103720,
			"target":34962
		},
		{
			"buffer":0,
			"byteLength":14560,
			"byteOffset":125560,
			"target":34962
		},
		{
			"buffer":0,
			"byteLength":19584,
			"byteOffset":140120,
			"target":34963
		},
		{
			"buffer":0,
			"byteLength":120,
			"byteOffset":159704,
			"target":34962
		},
		{
			"buffer":0,
			"byteLength":180,
			"byteOffset":159824,
			"target":34962
		},
		{
			"buffer":0,
			"byteLength":180,
			"byteOffset":160004,
			"target":34962
		},
		{
			"buffer":0,
			"byteLength":120,
			"byteOffset":160184,
			"target":34962
		},
		{
			"buffer":0,
			"byteLength":66,
			"byteOffset":160304,
			"target":34963
		},
		{
			"buffer":0,
			"byteLength":136,
			"byteOffset":160372,
			"target":34962
		},
		{
			"buffer":0,
			"byteLength":204,
			"byteOffset":160508,
			"target":34962
		},
		{
			"buffer":0,
			"byteLength":204,
			"byteOffset":160712,
			"target":34962
		},
		{
			"buffer":0,
			"byteLength":136,
			"byteOffset":160916,
			"target":34962
		},
		{
			"buffer":0,
			"byteLength":66,
			"byteOffset":161052,
			"target":34963
		},
		{
			"buffer":0,
			"byteLength":136,
			"byteOffset":161120,
			"target":34962
		},
		{
			"buffer":0,
			"byteLength":204,
			"byteOffset":161256,
			"target":34962
		},
		{
			"buffer":0,
			"byteLength":204,
			"byteOffset":161460,
			"target":34962
		},
		{
			"buffer":0,
			"byteLength":136,
			"byteOffset":161664,
			"target":34962
		},
		{
			"buffer":0,
			"byteLength":66,
			"byteOffset":161800,
			"target":34963
		}
	],
	"samplers":[
		{
			"magFilter":9729,
			"minFilter":9987
		}
	],
	"buffers":[
		{
			"byteLength":161868,
			"uri":"Prop_CeilingComputer.bin"
		}
	]
}
