{
	"asset":{
		"generator":"Khronos glTF Blender I/O v4.0.44",
		"version":"2.0"
	},
	"extensionsUsed":[
		"KHR_materials_specular",
		"KHR_materials_ior"
	],
	"scene":0,
	"scenes":[
		{
			"name":"Scene",
			"nodes":[
				0
			]
		}
	],
	"nodes":[
		{
			"mesh":0,
			"name":"Prop_Computer"
		}
	],
	"materials":[
		{
			"doubleSided":true,
			"extensions":{
				"KHR_materials_specular":{
					"specularFactor":0
				},
				"KHR_materials_ior":{
					"ior":1.4500000476837158
				}
			},
			"name":"MI_Trim_01",
			"normalTexture":{
				"index":0
			},
			"pbrMetallicRoughness":{
				"baseColorTexture":{
					"index":1
				},
				"metallicRoughnessTexture":{
					"index":2
				}
			}
		},
		{
			"doubleSided":true,
			"name":"M_Black",
			"pbrMetallicRoughness":{
				"baseColorFactor":[
					0.0057737254537642,
					0.0057737254537642,
					0.0057737254537642,
					1
				],
				"metallicFactor":0
			}
		},
		{
			"alphaMode":"BLEND",
			"emissiveFactor":[
				1,
				1,
				1
			],
			"name":"MI_StatScreens_1",
			"pbrMetallicRoughness":{
				"baseColorTexture":{
					"index":3
				},
				"metallicFactor":0
			}
		}
	],
	"meshes":[
		{
			"name":"Plane.001",
			"primitives":[
				{
					"attributes":{
						"COLOR_0":0,
						"POSITION":1,
						"NORMAL":2,
						"TEXCOORD_0":3
					},
					"indices":4,
					"material":0
				},
				{
					"attributes":{
						"COLOR_0":5,
						"POSITION":6,
						"NORMAL":7,
						"TEXCOORD_0":8
					},
					"indices":9,
					"material":1
				},
				{
					"attributes":{
						"COLOR_0":10,
						"POSITION":11,
						"NORMAL":12,
						"TEXCOORD_0":13
					},
					"indices":14,
					"material":2
				}
			]
		}
	],
	"textures":[
		{
			"sampler":0,
			"source":0
		},
		{
			"sampler":0,
			"source":1
		},
		{
			"sampler":0,
			"source":2
		},
		{
			"sampler":0,
			"source":3
		}
	],
	"images":[
		{
			"mimeType":"image/png",
			"name":"T_Trim_01_Normal",
			"uri":"T_Trim_01_Normal.png"
		},
		{
			"mimeType":"image/png",
			"name":"T_Trim_01_BaseColor_Red",
			"uri":"T_Trim_01_BaseColor_Red.png"
		},
		{
			"mimeType":"image/png",
			"name":"T_Trim_01_ORM",
			"uri":"T_Trim_01_ORM.png"
		},
		{
			"mimeType":"image/png",
			"name":"T_Screens1",
			"uri":"T_Screens1.png"
		}
	],
	"accessors":[
		{
			"bufferView":0,
			"componentType":5123,
			"count":367,
			"normalized":true,
			"type":"VEC4"
		},
		{
			"bufferView":1,
			"componentType":5126,
			"count":367,
			"max":[
				0.37167635560035706,
				1.5915641784667969,
				0.3462287187576294
			],
			"min":[
				-0.3716762363910675,
				-0.0011917203664779663,
				-0.21623048186302185
			],
			"type":"VEC3"
		},
		{
			"bufferView":2,
			"componentType":5126,
			"count":367,
			"type":"VEC3"
		},
		{
			"bufferView":3,
			"componentType":5126,
			"count":367,
			"type":"VEC2"
		},
		{
			"bufferView":4,
			"componentType":5123,
			"count":1050,
			"type":"SCALAR"
		},
		{
			"bufferView":5,
			"componentType":5123,
			"count":160,
			"normalized":true,
			"type":"VEC4"
		},
		{
			"bufferView":6,
			"componentType":5126,
			"count":160,
			"max":[
				0.3487084209918976,
				1.5915641784667969,
				0.23400777578353882
			],
			"min":[
				-0.34870827198028564,
				1.2684918642044067,
				-0.08906489610671997
			],
			"type":"VEC3"
		},
		{
			"bufferView":7,
			"componentType":5126,
			"count":160,
			"type":"VEC3"
		},
		{
			"bufferView":8,
			"componentType":5126,
			"count":160,
			"type":"VEC2"
		},
		{
			"bufferView":9,
			"componentType":5123,
			"count":474,
			"type":"SCALAR"
		},
		{
			"bufferView":10,
			"componentType":5123,
			"count":15,
			"normalized":true,
			"type":"VEC4"
		},
		{
			"bufferView":11,
			"componentType":5126,
			"count":15,
			"max":[
				0.32004132866859436,
				1.6244523525238037,
				0.2632445991039276
			],
			"min":[
				-0.32004037499427795,
				1.3004415035247803,
				-0.06148824840784073
			],
			"type":"VEC3"
		},
		{
			"bufferView":12,
			"componentType":5126,
			"count":15,
			"type":"VEC3"
		},
		{
			"bufferView":13,
			"componentType":5126,
			"count":15,
			"type":"VEC2"
		},
		{
			"bufferView":14,
			"componentType":5123,
			"count":33,
			"type":"SCALAR"
		}
	],
	"bufferViews":[
		{
			"buffer":0,
			"byteLength":2936,
			"byteOffset":0,
			"target":34962
		},
		{
			"buffer":0,
			"byteLength":4404,
			"byteOffset":2936,
			"target":34962
		},
		{
			"buffer":0,
			"byteLength":4404,
			"byteOffset":7340,
			"target":34962
		},
		{
			"buffer":0,
			"byteLength":2936,
			"byteOffset":11744,
			"target":34962
		},
		{
			"buffer":0,
			"byteLength":2100,
			"byteOffset":14680,
			"target":34963
		},
		{
			"buffer":0,
			"byteLength":1280,
			"byteOffset":16780,
			"target":34962
		},
		{
			"buffer":0,
			"byteLength":1920,
			"byteOffset":18060,
			"target":34962
		},
		{
			"buffer":0,
			"byteLength":1920,
			"byteOffset":19980,
			"target":34962
		},
		{
			"buffer":0,
			"byteLength":1280,
			"byteOffset":21900,
			"target":34962
		},
		{
			"buffer":0,
			"byteLength":948,
			"byteOffset":23180,
			"target":34963
		},
		{
			"buffer":0,
			"byteLength":120,
			"byteOffset":24128,
			"target":34962
		},
		{
			"buffer":0,
			"byteLength":180,
			"byteOffset":24248,
			"target":34962
		},
		{
			"buffer":0,
			"byteLength":180,
			"byteOffset":24428,
			"target":34962
		},
		{
			"buffer":0,
			"byteLength":120,
			"byteOffset":24608,
			"target":34962
		},
		{
			"buffer":0,
			"byteLength":66,
			"byteOffset":24728,
			"target":34963
		}
	],
	"samplers":[
		{
			"magFilter":9729,
			"minFilter":9987
		}
	],
	"buffers":[
		{
			"byteLength":24796,
			"uri":"Prop_Computer.bin"
		}
	]
}
