{
  "accessors": [
    {
      "bufferView": 2,
      "componentType": 5126,
      "count": 2837,
      "max": [
        1032.562255859375,
        1032.561767578125,
        141.3071746826172
      ],
      "min": [
        -1032.5623779296875,
        -1032.562255859375,
        -141.30718994140625
      ],
      "type": "VEC3"
    },
    {
      "bufferView": 2,
      "byteOffset": 34044,
      "componentType": 5126,
      "count": 2837,
      "max": [
        1.0,
        1.0,
        1.0
      ],
      "min": [
        -1.0,
        -1.0,
        -1.0
      ],
      "type": "VEC3"
    },
    {
      "bufferView": 1,
      "componentType": 5126,
      "count": 2837,
      "max": [
        1.0,
        1.0
      ],
      "min": [
        -5.960464477539063e-08,
        0.0
      ],
      "type": "VEC2"
    },
    {
      "bufferView": 1,
      "byteOffset": 22696,
      "componentType": 5126,
      "count": 2837,
      "max": [
        1.0,
        0.8616306185722351
      ],
      "min": [
        2.308999391686939e-08,
        0.1383693814277649
      ],
      "type": "VEC2"
    },
    {
      "bufferView": 1,
      "byteOffset": 45392,
      "componentType": 5126,
      "count": 2837,
      "max": [
        0.9822560548782349,
        0.9919354915618896
      ],
      "min": [
        0.008064508438110352,
        0.011267244815826416
      ],
      "type": "VEC2"
    },
    {
      "bufferView": 0,
      "componentType": 5125,
      "count": 8796,
      "type": "SCALAR"
    },
    {
      "bufferView": 2,
      "byteOffset": 68088,
      "componentType": 5126,
      "count": 128,
      "max": [
        880.1621704101563,
        880.1617431640625,
        51.97691345214844
      ],
      "min": [
        -880.1624755859375,
        -880.1622314453125,
        -54.414398193359375
      ],
      "type": "VEC3"
    },
    {
      "bufferView": 2,
      "byteOffset": 69624,
      "componentType": 5126,
      "count": 128,
      "max": [
        1.0,
        1.0,
        0.0
      ],
      "min": [
        -1.0,
        -1.0,
        0.0
      ],
      "type": "VEC3"
    },
    {
      "bufferView": 1,
      "byteOffset": 68088,
      "componentType": 5126,
      "count": 128,
      "max": [
        0.9262030720710754,
        0.5351377129554749
      ],
      "min": [
        0.07379698753356934,
        0.4632143974304199
      ],
      "type": "VEC2"
    },
    {
      "bufferView": 1,
      "byteOffset": 69112,
      "componentType": 5126,
      "count": 128,
      "max": [
        0.6299645304679871,
        0.6299643516540527
      ],
      "min": [
        0.3791448771953583,
        0.4354276657104492
      ],
      "type": "VEC2"
    },
    {
      "bufferView": 1,
      "byteOffset": 70136,
      "componentType": 5126,
      "count": 128,
      "max": [
        0.7603564262390137,
        0.7504632472991943
      ],
      "min": [
        0.027875542640686035,
        0.12247574329376221
      ],
      "type": "VEC2"
    },
    {
      "bufferView": 0,
      "byteOffset": 35184,
      "componentType": 5125,
      "count": 192,
      "type": "SCALAR"
    },
    {
      "bufferView": 2,
      "byteOffset": 71160,
      "componentType": 5126,
      "count": 4,
      "max": [
        -228.60009765625,
        461.061767578125,
        39.27691650390625
      ],
      "min": [
        -461.0625,
        228.59930419921875,
        -41.71441650390625
      ],
      "type": "VEC3"
    },
    {
      "bufferView": 2,
      "byteOffset": 71208,
      "componentType": 5126,
      "count": 4,
      "max": [
        0.7071068286895752,
        -0.7071068286895752,
        0.0
      ],
      "min": [
        0.7071068286895752,
        -0.7071068286895752,
        0.0
      ],
      "type": "VEC3"
    },
    {
      "bufferView": 1,
      "byteOffset": 71160,
      "componentType": 5126,
      "count": 4,
      "max": [
        -0.2845454216003418,
        0.719627857208252
      ],
      "min": [
        -1.0823478698730469,
        0.2803789973258972
      ],
      "type": "VEC2"
    },
    {
      "bufferView": 1,
      "byteOffset": 71192,
      "componentType": 5126,
      "count": 4,
      "max": [
        0.5232742428779602,
        0.4270225763320923
      ],
      "min": [
        0.4840555787086487,
        0.3144567012786865
      ],
      "type": "VEC2"
    },
    {
      "bufferView": 1,
      "byteOffset": 71224,
      "componentType": 5126,
      "count": 4,
      "max": [
        0.6805150508880615,
        0.7729149460792542
      ],
      "min": [
        0.6598687171936035,
        0.7151852250099182
      ],
      "type": "VEC2"
    },
    {
      "bufferView": 0,
      "byteOffset": 35952,
      "componentType": 5125,
      "count": 6,
      "type": "SCALAR"
    },
    {
      "bufferView": 2,
      "byteOffset": 71256,
      "componentType": 5126,
      "count": 4,
      "max": [
        -228.600830078125,
        -228.60064697265625,
        39.27685546875
      ],
      "min": [
        -461.0625,
        -461.062255859375,
        -41.71435546875
      ],
      "type": "VEC3"
    },
    {
      "bufferView": 2,
      "byteOffset": 71304,
      "componentType": 5126,
      "count": 4,
      "max": [
        0.7071068286895752,
        0.7071068286895752,
        0.0
      ],
      "min": [
        0.7071068286895752,
        0.7071068286895752,
        0.0
      ],
      "type": "VEC3"
    },
    {
      "bufferView": 1,
      "byteOffset": 71256,
      "componentType": 5126,
      "count": 4,
      "max": [
        -0.2845470905303955,
        0.719622015953064
      ],
      "min": [
        -1.0823471546173096,
        0.28037071228027344
      ],
      "type": "VEC2"
    },
    {
      "bufferView": 1,
      "byteOffset": 71288,
      "componentType": 5126,
      "count": 4,
      "max": [
        0.6946520805358887,
        0.5232743620872498
      ],
      "min": [
        0.5820866227149963,
        0.4840558171272278
      ],
      "type": "VEC2"
    },
    {
      "bufferView": 1,
      "byteOffset": 71320,
      "componentType": 5126,
      "count": 4,
      "max": [
        0.7571327686309814,
        0.7661291360855103
      ],
      "min": [
        0.7365744709968567,
        0.7099965810775757
      ],
      "type": "VEC2"
    },
    {
      "bufferView": 0,
      "byteOffset": 35976,
      "componentType": 5125,
      "count": 6,
      "type": "SCALAR"
    },
    {
      "bufferView": 2,
      "byteOffset": 71352,
      "componentType": 5126,
      "count": 4,
      "max": [
        461.06219482421875,
        -228.60125732421875,
        39.27690124511719
      ],
      "min": [
        228.59906005859375,
        -461.0623779296875,
        -41.71435546875
      ],
      "type": "VEC3"
    },
    {
      "bufferView": 2,
      "byteOffset": 71400,
      "componentType": 5126,
      "count": 4,
      "max": [
        -0.7071068286895752,
        0.7071068286895752,
        0.0
      ],
      "min": [
        -0.7071068286895752,
        0.7071068286895752,
        0.0
      ],
      "type": "VEC3"
    },
    {
      "bufferView": 1,
      "byteOffset": 71352,
      "componentType": 5126,
      "count": 4,
      "max": [
        -0.2845427989959717,
        0.7196224927902222
      ],
      "min": [
        -1.0823471546173096,
        0.280370831489563
      ],
      "type": "VEC2"
    },
    {
      "bufferView": 1,
      "byteOffset": 71384,
      "componentType": 5126,
      "count": 4,
      "max": [
        0.4270228147506714,
        0.523274302482605
      ],
      "min": [
        0.31445667147636414,
        0.48405569791793823
      ],
      "type": "VEC2"
    },
    {
      "bufferView": 1,
      "byteOffset": 71416,
      "componentType": 5126,
      "count": 4,
      "max": [
        0.31898242235183716,
        0.7472279071807861
      ],
      "min": [
        0.2596092224121094,
        0.726594865322113
      ],
      "type": "VEC2"
    },
    {
      "bufferView": 0,
      "byteOffset": 36000,
      "componentType": 5125,
      "count": 6,
      "type": "SCALAR"
    },
    {
      "bufferView": 2,
      "byteOffset": 71448,
      "componentType": 5126,
      "count": 4,
      "max": [
        461.06219482421875,
        461.0616760253906,
        39.27690124511719
      ],
      "min": [
        228.599853515625,
        228.59872436523438,
        -41.71437072753906
      ],
      "type": "VEC3"
    },
    {
      "bufferView": 2,
      "byteOffset": 71496,
      "componentType": 5126,
      "count": 4,
      "max": [
        -0.7071068286895752,
        -0.7071068286895752,
        0.0
      ],
      "min": [
        -0.7071068286895752,
        -0.7071068286895752,
        0.0
      ],
      "type": "VEC3"
    },
    {
      "bufferView": 1,
      "byteOffset": 71448,
      "componentType": 5126,
      "count": 4,
      "max": [
        -0.28454267978668213,
        0.7196282744407654
      ],
      "min": [
        -1.0823469161987305,
        0.2803792357444763
      ],
      "type": "VEC2"
    },
    {
      "bufferView": 1,
      "byteOffset": 71480,
      "componentType": 5126,
      "count": 4,
      "max": [
        0.515944242477417,
        0.42702269554138184
      ],
      "min": [
        0.47672566771507263,
        0.31445664167404175
      ],
      "type": "VEC2"
    },
    {
      "bufferView": 1,
      "byteOffset": 71512,
      "componentType": 5126,
      "count": 4,
      "max": [
        0.5314695835113525,
        0.6201627254486084
      ],
      "min": [
        0.5108365416526794,
        0.5607895255088806
      ],
      "type": "VEC2"
    },
    {
      "bufferView": 0,
      "byteOffset": 36024,
      "componentType": 5125,
      "count": 6,
      "type": "SCALAR"
    },
    {
      "bufferView": 2,
      "byteOffset": 71544,
      "componentType": 5126,
      "count": 16,
      "max": [
        461.0599365234375,
        461.06103515625,
        141.3071746826172
      ],
      "min": [
        -461.0631103515625,
        -461.06201171875,
        128.60707092285156
      ],
      "type": "VEC3"
    },
    {
      "bufferView": 2,
      "byteOffset": 71736,
      "componentType": 5126,
      "count": 16,
      "max": [
        0.0,
        -0.0,
        1.0
      ],
      "min": [
        0.0,
        -0.0,
        -1.0
      ],
      "type": "VEC3"
    },
    {
      "bufferView": 1,
      "byteOffset": 71544,
      "componentType": 5126,
      "count": 16,
      "max": [
        0.7232615947723389,
        0.7232608795166016
      ],
      "min": [
        0.27673840522766113,
        0.2767389416694641
      ],
      "type": "VEC2"
    },
    {
      "bufferView": 1,
      "byteOffset": 71672,
      "componentType": 5126,
      "count": 16,
      "max": [
        0.7232608795166016,
        0.7232608795166016
      ],
      "min": [
        0.2767391502857208,
        0.27673912048339844
      ],
      "type": "VEC2"
    },
    {
      "bufferView": 1,
      "byteOffset": 71800,
      "componentType": 5126,
      "count": 16,
      "max": [
        0.8950929641723633,
        0.9919354915618896
      ],
      "min": [
        0.2338709533214569,
        0.7823262214660645
      ],
      "type": "VEC2"
    },
    {
      "bufferView": 0,
      "byteOffset": 36048,
      "componentType": 5125,
      "count": 36,
      "type": "SCALAR"
    }
  ],
  "asset": {
    "extras": {
      "author": "Inditrion Dradnon (https://sketchfab.com/dradnon)",
      "license": "CC-BY-4.0 (http://creativecommons.org/licenses/by/4.0/)",
      "source": "https://sketchfab.com/3d-models/modular-hallway-cross-type-01-5906fa29d9ef4d42864ac01986fef392",
      "title": "Modular Hallway Cross Type 01"
    },
    "generator": "Sketchfab-15.44.0",
    "version": "2.0"
  },
  "bufferViews": [
    {
      "buffer": 0,
      "byteLength": 36192,
      "name": "floatBufferViews",
      "target": 34963
    },
    {
      "buffer": 0,
      "byteLength": 71928,
      "byteOffset": 36192,
      "byteStride": 8,
      "name": "floatBufferViews",
      "target": 34962
    },
    {
      "buffer": 0,
      "byteLength": 71928,
      "byteOffset": 108120,
      "byteStride": 12,
      "name": "floatBufferViews",
      "target": 34962
    }
  ],
  "buffers": [
    {
      "byteLength": 180048,
      "uri": "scene.bin"
    }
  ],
  "extensionsUsed": [
    "KHR_materials_specular",
    "KHR_materials_emissive_strength"
  ],
  "images": [
    {
      "uri": "textures/Hulle_baseColor.jpeg"
    },
    {
      "uri": "textures/Hulle_metallicRoughness.png"
    },
    {
      "uri": "textures/Hulle_specularf0.png"
    },
    {
      "uri": "textures/Material__2142148966_emissive.jpeg"
    },
    {
      "uri": "textures/Material__2142153246_emissive.jpeg"
    }
  ],
  "materials": [
    {
      "doubleSided": true,
      "extensions": {
        "KHR_materials_specular": {
          "specularColorFactor": [
            1.0,
            1.0,
            1.0
          ],
          "specularFactor": 1.0,
          "specularTexture": {
            "index": 2
          }
        }
      },
      "name": "Hulle",
      "occlusionTexture": {
        "index": 1
      },
      "pbrMetallicRoughness": {
        "baseColorTexture": {
          "index": 0
        },
        "metallicRoughnessTexture": {
          "index": 1
        }
      }
    },
    {
      "doubleSided": true,
      "emissiveFactor": [
        1.0,
        1.0,
        1.0
      ],
      "extensions": {
        "KHR_materials_emissive_strength": {
          "emissiveStrength": 10.0
        }
      },
      "name": "SG-LightW",
      "pbrMetallicRoughness": {
        "baseColorFactor": [
          0.215861,
          0.215861,
          0.215861,
          1.0
        ],
        "metallicFactor": 0.0,
        "roughnessFactor": 0.6
      }
    },
    {
      "doubleSided": true,
      "emissiveFactor": [
        1.0,
        1.0,
        1.0
      ],
      "emissiveTexture": {
        "index": 3
      },
      "extensions": {
        "KHR_materials_emissive_strength": {
          "emissiveStrength": 10.0
        }
      },
      "name": "Material__2142148966",
      "pbrMetallicRoughness": {
        "baseColorFactor": [
          0.0,
          0.0,
          0.0,
          1.0
        ],
        "metallicFactor": 0.0,
        "roughnessFactor": 0.9577051494623774
      }
    },
    {
      "doubleSided": true,
      "emissiveFactor": [
        1.0,
        1.0,
        1.0
      ],
      "emissiveTexture": {
        "index": 3
      },
      "extensions": {
        "KHR_materials_emissive_strength": {
          "emissiveStrength": 10.0
        }
      },
      "name": "Material__2142148001",
      "pbrMetallicRoughness": {
        "baseColorFactor": [
          0.0,
          0.0,
          0.0,
          1.0
        ],
        "metallicFactor": 0.0,
        "roughnessFactor": 0.9577051494623774
      }
    },
    {
      "doubleSided": true,
      "emissiveFactor": [
        1.0,
        1.0,
        1.0
      ],
      "emissiveTexture": {
        "index": 4
      },
      "extensions": {
        "KHR_materials_emissive_strength": {
          "emissiveStrength": 10.0
        }
      },
      "name": "Material__2142153246",
      "pbrMetallicRoughness": {
        "baseColorFactor": [
          0.0,
          0.0,
          0.0,
          1.0
        ],
        "metallicFactor": 0.0,
        "roughnessFactor": 0.9577051494623774
      }
    },
    {
      "doubleSided": true,
      "emissiveFactor": [
        1.0,
        1.0,
        1.0
      ],
      "emissiveTexture": {
        "index": 3
      },
      "extensions": {
        "KHR_materials_emissive_strength": {
          "emissiveStrength": 10.0
        }
      },
      "name": "unnamed__9__Mat",
      "pbrMetallicRoughness": {
        "baseColorFactor": [
          0.0,
          0.0,
          0.0,
          1.0
        ],
        "metallicFactor": 0.0,
        "roughnessFactor": 0.9577051494623774
      }
    },
    {
      "alphaMode": "BLEND",
      "doubleSided": true,
      "name": "Gaenge",
      "pbrMetallicRoughness": {
        "baseColorFactor": [
          0.008568125618069303,
          0.5520114015119998,
          1.0,
          0.086
        ],
        "metallicFactor": 0.0,
        "roughnessFactor": 0.9577051494623774
      }
    }
  ],
  "meshes": [
    {
      "name": "Gang_4er_Kreuzung001_Hulle_0",
      "primitives": [
        {
          "attributes": {
            "NORMAL": 1,
            "POSITION": 0,
            "TEXCOORD_0": 2,
            "TEXCOORD_1": 3,
            "TEXCOORD_2": 4
          },
          "indices": 5,
          "material": 0,
          "mode": 4
        }
      ]
    },
    {
      "name": "Gang_4er_Kreuzung001_SG-LightW_0",
      "primitives": [
        {
          "attributes": {
            "NORMAL": 7,
            "POSITION": 6,
            "TEXCOORD_0": 8,
            "TEXCOORD_1": 9,
            "TEXCOORD_2": 10
          },
          "indices": 11,
          "material": 1,
          "mode": 4
        }
      ]
    },
    {
      "name": "Gang_4er_Kreuzung001_Material__2142148966_0",
      "primitives": [
        {
          "attributes": {
            "NORMAL": 13,
            "POSITION": 12,
            "TEXCOORD_0": 14,
            "TEXCOORD_1": 15,
            "TEXCOORD_2": 16
          },
          "indices": 17,
          "material": 2,
          "mode": 4
        }
      ]
    },
    {
      "name": "Gang_4er_Kreuzung001_Material__2142148001_0",
      "primitives": [
        {
          "attributes": {
            "NORMAL": 19,
            "POSITION": 18,
            "TEXCOORD_0": 20,
            "TEXCOORD_1": 21,
            "TEXCOORD_2": 22
          },
          "indices": 23,
          "material": 3,
          "mode": 4
        }
      ]
    },
    {
      "name": "Gang_4er_Kreuzung001_Material__2142153246_0",
      "primitives": [
        {
          "attributes": {
            "NORMAL": 25,
            "POSITION": 24,
            "TEXCOORD_0": 26,
            "TEXCOORD_1": 27,
            "TEXCOORD_2": 28
          },
          "indices": 29,
          "material": 4,
          "mode": 4
        }
      ]
    },
    {
      "name": "Gang_4er_Kreuzung001_unnamed__9__Mat_0",
      "primitives": [
        {
          "attributes": {
            "NORMAL": 31,
            "POSITION": 30,
            "TEXCOORD_0": 32,
            "TEXCOORD_1": 33,
            "TEXCOORD_2": 34
          },
          "indices": 35,
          "material": 5,
          "mode": 4
        }
      ]
    },
    {
      "name": "Gang_4er_Kreuzung001_Gaenge_0",
      "primitives": [
        {
          "attributes": {
            "NORMAL": 37,
            "POSITION": 36,
            "TEXCOORD_0": 38,
            "TEXCOORD_1": 39,
            "TEXCOORD_2": 40
          },
          "indices": 41,
          "material": 6,
          "mode": 4
        }
      ]
    }
  ],
  "nodes": [
    {
      "children": [
        1
      ],
      "matrix": [
        -1.0,
        2.832769343193999e-16,
        6.290011496532519e-32,
        0.0,
        0.0,
        2.220446049250313e-16,
        -1.0,
        0.0,
        -2.832769343193999e-16,
        -1.0,
        -2.220446049250313e-16,
        0.0,
        0.0,
        0.0,
        0.0,
        1.0
      ],
      "name": "Sketchfab_model"
    },
    {
      "children": [
        2
      ],
      "matrix": [
        0.009999999776482582,
        0.0,
        0.0,
        0.0,
        0.0,
        -0.009999999776482582,
        0.0,
        0.0,
        0.0,
        0.0,
        -0.009999999776482582,
        0.0,
        0.0,
        0.0,
        0.0,
        1.0
      ],
      "name": "fa2ac0cbf44348ee95e05b46e6413a76.fbx"
    },
    {
      "children": [
        3
      ],
      "name": "RootNode"
    },
    {
      "children": [
        4,
        5,
        6,
        7,
        8,
        9,
        10
      ],
      "name": "Gang_4er_Kreuzung001"
    },
    {
      "mesh": 0,
      "name": "Gang_4er_Kreuzung001_Hulle_0"
    },
    {
      "mesh": 1,
      "name": "Gang_4er_Kreuzung001_SG-LightW_0"
    },
    {
      "mesh": 2,
      "name": "Gang_4er_Kreuzung001_Material__2142148966_0"
    },
    {
      "mesh": 3,
      "name": "Gang_4er_Kreuzung001_Material__2142148001_0"
    },
    {
      "mesh": 4,
      "name": "Gang_4er_Kreuzung001_Material__2142153246_0"
    },
    {
      "mesh": 5,
      "name": "Gang_4er_Kreuzung001_unnamed__9__Mat_0"
    },
    {
      "mesh": 6,
      "name": "Gang_4er_Kreuzung001_Gaenge_0"
    }
  ],
  "samplers": [
    {
      "magFilter": 9729,
      "minFilter": 9987,
      "wrapS": 10497,
      "wrapT": 10497
    }
  ],
  "scene": 0,
  "scenes": [
    {
      "name": "Sketchfab_Scene",
      "nodes": [
        0
      ]
    }
  ],
  "textures": [
    {
      "sampler": 0,
      "source": 0
    },
    {
      "sampler": 0,
      "source": 1
    },
    {
      "sampler": 0,
      "source": 2
    },
    {
      "sampler": 0,
      "source": 3
    },
    {
      "sampler": 0,
      "source": 4
    }
  ]
}
