{
	"asset":{
		"generator":"Khronos glTF Blender I/O v4.0.44",
		"version":"2.0"
	},
	"extensionsUsed":[
		"KHR_materials_specular",
		"KHR_materials_ior"
	],
	"scene":0,
	"scenes":[
		{
			"name":"Scene",
			"nodes":[
				4
			]
		}
	],
	"nodes":[
		{
			"name":"Propeller"
		},
		{
			"children":[
				0
			],
			"name":"Root"
		},
		{
			"mesh":0,
			"name":"Prop_Fan_Big",
			"skin":0
		},
		{
			"mesh":1,
			"name":"Prop_Fan_Big_Propeller",
			"skin":0
		},
		{
			"children":[
				2,
				3,
				1
			],
			"name":"Fan_Armature"
		}
	],
	"animations":[
		{
			"channels":[
				{
					"sampler":0,
					"target":{
						"node":1,
						"path":"translation"
					}
				},
				{
					"sampler":1,
					"target":{
						"node":1,
						"path":"rotation"
					}
				},
				{
					"sampler":2,
					"target":{
						"node":1,
						"path":"scale"
					}
				},
				{
					"sampler":3,
					"target":{
						"node":0,
						"path":"translation"
					}
				},
				{
					"sampler":4,
					"target":{
						"node":0,
						"path":"rotation"
					}
				},
				{
					"sampler":5,
					"target":{
						"node":0,
						"path":"scale"
					}
				}
			],
			"name":"Fan_Idle",
			"samplers":[
				{
					"input":37,
					"interpolation":"STEP",
					"output":38
				},
				{
					"input":37,
					"interpolation":"STEP",
					"output":39
				},
				{
					"input":37,
					"interpolation":"STEP",
					"output":40
				},
				{
					"input":37,
					"interpolation":"STEP",
					"output":41
				},
				{
					"input":42,
					"interpolation":"LINEAR",
					"output":43
				},
				{
					"input":37,
					"interpolation":"STEP",
					"output":44
				}
			]
		}
	],
	"materials":[
		{
			"doubleSided":true,
			"name":"MI_Trim_02",
			"normalTexture":{
				"index":0
			},
			"pbrMetallicRoughness":{
				"baseColorTexture":{
					"index":1
				},
				"metallicRoughnessTexture":{
					"index":2
				}
			}
		},
		{
			"doubleSided":true,
			"extensions":{
				"KHR_materials_specular":{
					"specularFactor":0
				},
				"KHR_materials_ior":{
					"ior":1.4500000476837158
				}
			},
			"name":"MI_Trim_01",
			"normalTexture":{
				"index":3
			},
			"pbrMetallicRoughness":{
				"baseColorTexture":{
					"index":4
				},
				"metallicRoughnessTexture":{
					"index":5
				}
			}
		},
		{
			"doubleSided":true,
			"name":"M_Black",
			"pbrMetallicRoughness":{
				"baseColorFactor":[
					0.0057737254537642,
					0.0057737254537642,
					0.0057737254537642,
					1
				],
				"metallicFactor":0,
				"roughnessFactor":0.5
			}
		},
		{
			"doubleSided":true,
			"name":"MI_Trim_02_Rails",
			"normalTexture":{
				"index":6
			},
			"pbrMetallicRoughness":{
				"baseColorTexture":{
					"index":7
				},
				"metallicRoughnessTexture":{
					"index":8
				}
			}
		}
	],
	"meshes":[
		{
			"name":"Cylinder.020",
			"primitives":[
				{
					"attributes":{
						"POSITION":0,
						"NORMAL":1,
						"TEXCOORD_0":2,
						"JOINTS_0":3,
						"WEIGHTS_0":4
					},
					"indices":5,
					"material":0
				},
				{
					"attributes":{
						"POSITION":6,
						"NORMAL":7,
						"TEXCOORD_0":8,
						"JOINTS_0":9,
						"WEIGHTS_0":10
					},
					"indices":11,
					"material":1
				},
				{
					"attributes":{
						"POSITION":12,
						"NORMAL":13,
						"TEXCOORD_0":14,
						"JOINTS_0":15,
						"WEIGHTS_0":16
					},
					"indices":17,
					"material":2
				},
				{
					"attributes":{
						"POSITION":18,
						"NORMAL":19,
						"TEXCOORD_0":20,
						"JOINTS_0":21,
						"WEIGHTS_0":22
					},
					"indices":23,
					"material":3
				}
			]
		},
		{
			"name":"Cube.063",
			"primitives":[
				{
					"attributes":{
						"POSITION":25,
						"NORMAL":26,
						"TEXCOORD_0":27,
						"JOINTS_0":28,
						"WEIGHTS_0":29
					},
					"indices":30,
					"material":1
				},
				{
					"attributes":{
						"POSITION":31,
						"NORMAL":32,
						"TEXCOORD_0":33,
						"JOINTS_0":34,
						"WEIGHTS_0":35
					},
					"indices":36,
					"material":0
				}
			]
		}
	],
	"textures":[
		{
			"sampler":0,
			"source":0
		},
		{
			"sampler":0,
			"source":1
		},
		{
			"sampler":0,
			"source":2
		},
		{
			"sampler":0,
			"source":3
		},
		{
			"sampler":0,
			"source":4
		},
		{
			"sampler":0,
			"source":5
		},
		{
			"sampler":0,
			"source":3
		},
		{
			"sampler":0,
			"source":1
		},
		{
			"sampler":0,
			"source":2
		}
	],
	"images":[
		{
			"mimeType":"image/png",
			"name":"T_Trim_02_Normal",
			"uri":"T_Trim_02_Normal.png"
		},
		{
			"mimeType":"image/png",
			"name":"T_Trim_02_BaseColor",
			"uri":"T_Trim_02_BaseColor.png"
		},
		{
			"mimeType":"image/png",
			"name":"T_Trim_02_ORM",
			"uri":"T_Trim_02_ORM.png"
		},
		{
			"mimeType":"image/png",
			"name":"T_Trim_01_Normal",
			"uri":"T_Trim_01_Normal.png"
		},
		{
			"mimeType":"image/png",
			"name":"T_Trim_01_BaseColor",
			"uri":"T_Trim_01_BaseColor.png"
		},
		{
			"mimeType":"image/png",
			"name":"T_Trim_01_ORM",
			"uri":"T_Trim_01_ORM.png"
		}
	],
	"skins":[
		{
			"inverseBindMatrices":24,
			"joints":[
				1,
				0
			],
			"name":"Fan_Armature"
		}
	],
	"accessors":[
		{
			"bufferView":0,
			"componentType":5126,
			"count":668,
			"max":[
				1.6245272159576416,
				0.3874124586582184,
				1.4977000951766968
			],
			"min":[
				-1.6245269775390625,
				-0.014311268925666809,
				-1.4977000951766968
			],
			"type":"VEC3"
		},
		{
			"bufferView":1,
			"componentType":5126,
			"count":668,
			"type":"VEC3"
		},
		{
			"bufferView":2,
			"componentType":5126,
			"count":668,
			"type":"VEC2"
		},
		{
			"bufferView":3,
			"componentType":5121,
			"count":668,
			"type":"VEC4"
		},
		{
			"bufferView":4,
			"componentType":5126,
			"count":668,
			"type":"VEC4"
		},
		{
			"bufferView":5,
			"componentType":5123,
			"count":1902,
			"type":"SCALAR"
		},
		{
			"bufferView":6,
			"componentType":5126,
			"count":96,
			"max":[
				1.289443850517273,
				0.3874124586582184,
				1.289443850517273
			],
			"min":[
				-1.289443850517273,
				0.04953651875257492,
				-1.289443850517273
			],
			"type":"VEC3"
		},
		{
			"bufferView":7,
			"componentType":5126,
			"count":96,
			"type":"VEC3"
		},
		{
			"bufferView":8,
			"componentType":5126,
			"count":96,
			"type":"VEC2"
		},
		{
			"bufferView":9,
			"componentType":5121,
			"count":96,
			"type":"VEC4"
		},
		{
			"bufferView":10,
			"componentType":5126,
			"count":96,
			"type":"VEC4"
		},
		{
			"bufferView":11,
			"componentType":5123,
			"count":288,
			"type":"SCALAR"
		},
		{
			"bufferView":12,
			"componentType":5126,
			"count":49,
			"max":[
				1.1282672882080078,
				0.020390737801790237,
				1.1282672882080078
			],
			"min":[
				-1.1282672882080078,
				0.004466056823730469,
				-1.1282672882080078
			],
			"type":"VEC3"
		},
		{
			"bufferView":13,
			"componentType":5126,
			"count":49,
			"type":"VEC3"
		},
		{
			"bufferView":14,
			"componentType":5126,
			"count":49,
			"type":"VEC2"
		},
		{
			"bufferView":15,
			"componentType":5121,
			"count":49,
			"type":"VEC4"
		},
		{
			"bufferView":16,
			"componentType":5126,
			"count":49,
			"type":"VEC4"
		},
		{
			"bufferView":17,
			"componentType":5123,
			"count":144,
			"type":"SCALAR"
		},
		{
			"bufferView":18,
			"componentType":5126,
			"count":360,
			"max":[
				1.4783998727798462,
				0.15018630027770996,
				0.034439072012901306
			],
			"min":[
				-1.478399634361267,
				0.032318830490112305,
				-0.15860921144485474
			],
			"type":"VEC3"
		},
		{
			"bufferView":19,
			"componentType":5126,
			"count":360,
			"type":"VEC3"
		},
		{
			"bufferView":20,
			"componentType":5126,
			"count":360,
			"type":"VEC2"
		},
		{
			"bufferView":21,
			"componentType":5121,
			"count":360,
			"type":"VEC4"
		},
		{
			"bufferView":22,
			"componentType":5126,
			"count":360,
			"type":"VEC4"
		},
		{
			"bufferView":23,
			"componentType":5123,
			"count":1848,
			"type":"SCALAR"
		},
		{
			"bufferView":24,
			"componentType":5126,
			"count":2,
			"type":"MAT4"
		},
		{
			"bufferView":25,
			"componentType":5126,
			"count":364,
			"max":[
				0.9441263675689697,
				0.47280240058898926,
				0.9441263675689697
			],
			"min":[
				-0.969636082649231,
				-0.016820572316646576,
				-0.9441263675689697
			],
			"type":"VEC3"
		},
		{
			"bufferView":26,
			"componentType":5126,
			"count":364,
			"type":"VEC3"
		},
		{
			"bufferView":27,
			"componentType":5126,
			"count":364,
			"type":"VEC2"
		},
		{
			"bufferView":28,
			"componentType":5121,
			"count":364,
			"type":"VEC4"
		},
		{
			"bufferView":29,
			"componentType":5126,
			"count":364,
			"type":"VEC4"
		},
		{
			"bufferView":30,
			"componentType":5123,
			"count":630,
			"type":"SCALAR"
		},
		{
			"bufferView":31,
			"componentType":5126,
			"count":42,
			"max":[
				0.2168334722518921,
				0.47280240058898926,
				0.21683348715305328
			],
			"min":[
				-0.21683348715305328,
				0.44906264543533325,
				-0.21683348715305328
			],
			"type":"VEC3"
		},
		{
			"bufferView":32,
			"componentType":5126,
			"count":42,
			"type":"VEC3"
		},
		{
			"bufferView":33,
			"componentType":5126,
			"count":42,
			"type":"VEC2"
		},
		{
			"bufferView":34,
			"componentType":5121,
			"count":42,
			"type":"VEC4"
		},
		{
			"bufferView":35,
			"componentType":5126,
			"count":42,
			"type":"VEC4"
		},
		{
			"bufferView":36,
			"componentType":5123,
			"count":120,
			"type":"SCALAR"
		},
		{
			"bufferView":37,
			"componentType":5126,
			"count":2,
			"max":[
				3.3333333333333335
			],
			"min":[
				0
			],
			"type":"SCALAR"
		},
		{
			"bufferView":38,
			"componentType":5126,
			"count":2,
			"type":"VEC3"
		},
		{
			"bufferView":39,
			"componentType":5126,
			"count":2,
			"type":"VEC4"
		},
		{
			"bufferView":40,
			"componentType":5126,
			"count":2,
			"type":"VEC3"
		},
		{
			"bufferView":41,
			"componentType":5126,
			"count":2,
			"type":"VEC3"
		},
		{
			"bufferView":42,
			"componentType":5126,
			"count":101,
			"max":[
				3.3333333333333335
			],
			"min":[
				0
			],
			"type":"SCALAR"
		},
		{
			"bufferView":43,
			"componentType":5126,
			"count":101,
			"type":"VEC4"
		},
		{
			"bufferView":44,
			"componentType":5126,
			"count":2,
			"type":"VEC3"
		}
	],
	"bufferViews":[
		{
			"buffer":0,
			"byteLength":8016,
			"byteOffset":0,
			"target":34962
		},
		{
			"buffer":0,
			"byteLength":8016,
			"byteOffset":8016,
			"target":34962
		},
		{
			"buffer":0,
			"byteLength":5344,
			"byteOffset":16032,
			"target":34962
		},
		{
			"buffer":0,
			"byteLength":2672,
			"byteOffset":21376,
			"target":34962
		},
		{
			"buffer":0,
			"byteLength":10688,
			"byteOffset":24048,
			"target":34962
		},
		{
			"buffer":0,
			"byteLength":3804,
			"byteOffset":34736,
			"target":34963
		},
		{
			"buffer":0,
			"byteLength":1152,
			"byteOffset":38540,
			"target":34962
		},
		{
			"buffer":0,
			"byteLength":1152,
			"byteOffset":39692,
			"target":34962
		},
		{
			"buffer":0,
			"byteLength":768,
			"byteOffset":40844,
			"target":34962
		},
		{
			"buffer":0,
			"byteLength":384,
			"byteOffset":41612,
			"target":34962
		},
		{
			"buffer":0,
			"byteLength":1536,
			"byteOffset":41996,
			"target":34962
		},
		{
			"buffer":0,
			"byteLength":576,
			"byteOffset":43532,
			"target":34963
		},
		{
			"buffer":0,
			"byteLength":588,
			"byteOffset":44108,
			"target":34962
		},
		{
			"buffer":0,
			"byteLength":588,
			"byteOffset":44696,
			"target":34962
		},
		{
			"buffer":0,
			"byteLength":392,
			"byteOffset":45284,
			"target":34962
		},
		{
			"buffer":0,
			"byteLength":196,
			"byteOffset":45676,
			"target":34962
		},
		{
			"buffer":0,
			"byteLength":784,
			"byteOffset":45872,
			"target":34962
		},
		{
			"buffer":0,
			"byteLength":288,
			"byteOffset":46656,
			"target":34963
		},
		{
			"buffer":0,
			"byteLength":4320,
			"byteOffset":46944,
			"target":34962
		},
		{
			"buffer":0,
			"byteLength":4320,
			"byteOffset":51264,
			"target":34962
		},
		{
			"buffer":0,
			"byteLength":2880,
			"byteOffset":55584,
			"target":34962
		},
		{
			"buffer":0,
			"byteLength":1440,
			"byteOffset":58464,
			"target":34962
		},
		{
			"buffer":0,
			"byteLength":5760,
			"byteOffset":59904,
			"target":34962
		},
		{
			"buffer":0,
			"byteLength":3696,
			"byteOffset":65664,
			"target":34963
		},
		{
			"buffer":0,
			"byteLength":128,
			"byteOffset":69360
		},
		{
			"buffer":0,
			"byteLength":4368,
			"byteOffset":69488,
			"target":34962
		},
		{
			"buffer":0,
			"byteLength":4368,
			"byteOffset":73856,
			"target":34962
		},
		{
			"buffer":0,
			"byteLength":2912,
			"byteOffset":78224,
			"target":34962
		},
		{
			"buffer":0,
			"byteLength":1456,
			"byteOffset":81136,
			"target":34962
		},
		{
			"buffer":0,
			"byteLength":5824,
			"byteOffset":82592,
			"target":34962
		},
		{
			"buffer":0,
			"byteLength":1260,
			"byteOffset":88416,
			"target":34963
		},
		{
			"buffer":0,
			"byteLength":504,
			"byteOffset":89676,
			"target":34962
		},
		{
			"buffer":0,
			"byteLength":504,
			"byteOffset":90180,
			"target":34962
		},
		{
			"buffer":0,
			"byteLength":336,
			"byteOffset":90684,
			"target":34962
		},
		{
			"buffer":0,
			"byteLength":168,
			"byteOffset":91020,
			"target":34962
		},
		{
			"buffer":0,
			"byteLength":672,
			"byteOffset":91188,
			"target":34962
		},
		{
			"buffer":0,
			"byteLength":240,
			"byteOffset":91860,
			"target":34963
		},
		{
			"buffer":0,
			"byteLength":8,
			"byteOffset":92100
		},
		{
			"buffer":0,
			"byteLength":24,
			"byteOffset":92108
		},
		{
			"buffer":0,
			"byteLength":32,
			"byteOffset":92132
		},
		{
			"buffer":0,
			"byteLength":24,
			"byteOffset":92164
		},
		{
			"buffer":0,
			"byteLength":24,
			"byteOffset":92188
		},
		{
			"buffer":0,
			"byteLength":404,
			"byteOffset":92212
		},
		{
			"buffer":0,
			"byteLength":1616,
			"byteOffset":92616
		},
		{
			"buffer":0,
			"byteLength":24,
			"byteOffset":94232
		}
	],
	"samplers":[
		{
			"magFilter":9729,
			"minFilter":9987
		}
	],
	"buffers":[
		{
			"byteLength":94256,
			"uri":"Prop_Fan_Big.bin"
		}
	]
}
