{
	"asset":{
		"generator":"Khronos glTF Blender I/O v4.0.44",
		"version":"2.0"
	},
	"extensionsUsed":[
		"KHR_materials_specular",
		"KHR_materials_ior"
	],
	"scene":0,
	"scenes":[
		{
			"name":"Scene",
			"nodes":[
				0
			]
		}
	],
	"nodes":[
		{
			"mesh":0,
			"name":"Prop_Teleporter"
		}
	],
	"materials":[
		{
			"doubleSided":true,
			"name":"MI_Trim_02",
			"normalTexture":{
				"index":0
			},
			"pbrMetallicRoughness":{
				"baseColorTexture":{
					"index":1
				},
				"metallicRoughnessTexture":{
					"index":2
				}
			}
		},
		{
			"doubleSided":true,
			"extensions":{
				"KHR_materials_specular":{
					"specularFactor":0
				},
				"KHR_materials_ior":{
					"ior":1.4500000476837158
				}
			},
			"name":"MI_Trim_01_Teleporter",
			"normalTexture":{
				"index":3
			},
			"pbrMetallicRoughness":{
				"baseColorTexture":{
					"index":4
				},
				"metallicRoughnessTexture":{
					"index":5
				}
			}
		},
		{
			"doubleSided":true,
			"name":"M_LightFade",
			"pbrMetallicRoughness":{
				"baseColorFactor":[
					0.800000011920929,
					0.800000011920929,
					0.800000011920929,
					1
				],
				"metallicFactor":0,
				"roughnessFactor":0.5
			}
		}
	],
	"meshes":[
		{
			"name":"Cylinder.006",
			"primitives":[
				{
					"attributes":{
						"POSITION":0,
						"NORMAL":1,
						"TEXCOORD_0":2
					},
					"indices":3,
					"material":0
				},
				{
					"attributes":{
						"POSITION":4,
						"NORMAL":5,
						"TEXCOORD_0":6
					},
					"indices":7,
					"material":1
				},
				{
					"attributes":{
						"POSITION":8,
						"NORMAL":9,
						"TEXCOORD_0":10
					},
					"indices":11,
					"material":2
				}
			]
		}
	],
	"textures":[
		{
			"sampler":0,
			"source":0
		},
		{
			"sampler":0,
			"source":1
		},
		{
			"sampler":0,
			"source":2
		},
		{
			"sampler":0,
			"source":3
		},
		{
			"sampler":0,
			"source":4
		},
		{
			"sampler":0,
			"source":5
		}
	],
	"images":[
		{
			"mimeType":"image/png",
			"name":"T_Trim_02_Normal",
			"uri":"T_Trim_02_Normal.png"
		},
		{
			"mimeType":"image/png",
			"name":"T_Trim_02_BaseColor_Red",
			"uri":"T_Trim_02_BaseColor_Red.png"
		},
		{
			"mimeType":"image/png",
			"name":"T_Trim_02_ORM",
			"uri":"T_Trim_02_ORM.png"
		},
		{
			"mimeType":"image/png",
			"name":"T_Trim_01_Normal",
			"uri":"T_Trim_01_Normal.png"
		},
		{
			"mimeType":"image/png",
			"name":"T_Trim_01_BaseColor_Red",
			"uri":"T_Trim_01_BaseColor_Red.png"
		},
		{
			"mimeType":"image/png",
			"name":"T_Trim_01_ORM",
			"uri":"T_Trim_01_ORM.png"
		}
	],
	"accessors":[
		{
			"bufferView":0,
			"componentType":5126,
			"count":704,
			"max":[
				1.9997848272323608,
				0.35239696502685547,
				1.9997848272323608
			],
			"min":[
				-1.9997848272323608,
				-0.016027435660362244,
				-1.9997848272323608
			],
			"type":"VEC3"
		},
		{
			"bufferView":1,
			"componentType":5126,
			"count":704,
			"type":"VEC3"
		},
		{
			"bufferView":2,
			"componentType":5126,
			"count":704,
			"type":"VEC2"
		},
		{
			"bufferView":3,
			"componentType":5123,
			"count":2376,
			"type":"SCALAR"
		},
		{
			"bufferView":4,
			"componentType":5126,
			"count":353,
			"max":[
				2.188666343688965,
				0.35239696502685547,
				2.188666343688965
			],
			"min":[
				-2.188666343688965,
				-0.03645368665456772,
				-2.188666343688965
			],
			"type":"VEC3"
		},
		{
			"bufferView":5,
			"componentType":5126,
			"count":353,
			"type":"VEC3"
		},
		{
			"bufferView":6,
			"componentType":5126,
			"count":353,
			"type":"VEC2"
		},
		{
			"bufferView":7,
			"componentType":5123,
			"count":864,
			"type":"SCALAR"
		},
		{
			"bufferView":8,
			"componentType":5126,
			"count":389,
			"max":[
				0.9240002632141113,
				0.7679887413978577,
				0.9209510684013367
			],
			"min":[
				-0.9184504747390747,
				0.1605464220046997,
				-0.915370762348175
			],
			"type":"VEC3"
		},
		{
			"bufferView":9,
			"componentType":5126,
			"count":389,
			"type":"VEC3"
		},
		{
			"bufferView":10,
			"componentType":5126,
			"count":389,
			"type":"VEC2"
		},
		{
			"bufferView":11,
			"componentType":5123,
			"count":1728,
			"type":"SCALAR"
		}
	],
	"bufferViews":[
		{
			"buffer":0,
			"byteLength":8448,
			"byteOffset":0,
			"target":34962
		},
		{
			"buffer":0,
			"byteLength":8448,
			"byteOffset":8448,
			"target":34962
		},
		{
			"buffer":0,
			"byteLength":5632,
			"byteOffset":16896,
			"target":34962
		},
		{
			"buffer":0,
			"byteLength":4752,
			"byteOffset":22528,
			"target":34963
		},
		{
			"buffer":0,
			"byteLength":4236,
			"byteOffset":27280,
			"target":34962
		},
		{
			"buffer":0,
			"byteLength":4236,
			"byteOffset":31516,
			"target":34962
		},
		{
			"buffer":0,
			"byteLength":2824,
			"byteOffset":35752,
			"target":34962
		},
		{
			"buffer":0,
			"byteLength":1728,
			"byteOffset":38576,
			"target":34963
		},
		{
			"buffer":0,
			"byteLength":4668,
			"byteOffset":40304,
			"target":34962
		},
		{
			"buffer":0,
			"byteLength":4668,
			"byteOffset":44972,
			"target":34962
		},
		{
			"buffer":0,
			"byteLength":3112,
			"byteOffset":49640,
			"target":34962
		},
		{
			"buffer":0,
			"byteLength":3456,
			"byteOffset":52752,
			"target":34963
		}
	],
	"samplers":[
		{
			"magFilter":9729,
			"minFilter":9987
		}
	],
	"buffers":[
		{
			"byteLength":56208,
			"uri":"Prop_Teleporter.bin"
		}
	]
}
