{
  "accessors": [
    {
      "bufferView": 2,
      "componentType": 5126,
      "count": 2176,
      "max": [
        832.7305297851563,
        495.29931640625,
        141.3074951171875
      ],
      "min": [
        -832.7301025390625,
        -495.29925537109375,
        -141.30752563476563
      ],
      "type": "VEC3"
    },
    {
      "bufferView": 2,
      "byteOffset": 26112,
      "componentType": 5126,
      "count": 2176,
      "max": [
        1.0,
        1.0,
        1.0
      ],
      "min": [
        -1.0,
        -1.0,
        -1.0
      ],
      "type": "VEC3"
    },
    {
      "bufferView": 1,
      "componentType": 5126,
      "count": 2176,
      "max": [
        1.0,
        1.0
      ],
      "min": [
        0.0,
        0.0
      ],
      "type": "VEC2"
    },
    {
      "bufferView": 1,
      "byteOffset": 17408,
      "componentType": 5126,
      "count": 2176,
      "max": [
        1.0,
        0.6715741753578186
      ],
      "min": [
        0.0,
        0.3284258246421814
      ],
      "type": "VEC2"
    },
    {
      "bufferView": 1,
      "byteOffset": 34816,
      "componentType": 5126,
      "count": 2176,
      "max": [
        0.9895416498184204,
        0.9919354915618896
      ],
      "min": [
        0.008064493536949158,
        0.02169668674468994
      ],
      "type": "VEC2"
    },
    {
      "bufferView": 0,
      "componentType": 5125,
      "count": 6942,
      "type": "SCALAR"
    },
    {
      "bufferView": 2,
      "byteOffset": 52224,
      "componentType": 5126,
      "count": 80,
      "max": [
        680.3304443359375,
        342.8992919921875,
        51.97735595703125
      ],
      "min": [
        -680.330078125,
        -482.5992431640625,
        -54.41485595703125
      ],
      "type": "VEC3"
    },
    {
      "bufferView": 2,
      "byteOffset": 53184,
      "componentType": 5126,
      "count": 80,
      "max": [
        1.0,
        1.0,
        0.0
      ],
      "min": [
        -1.0,
        -1.0,
        0.0
      ],
      "type": "VEC3"
    },
    {
      "bufferView": 1,
      "byteOffset": 52224,
      "componentType": 5126,
      "count": 80,
      "max": [
        0.9084938168525696,
        0.6839157938957214
      ],
      "min": [
        0.09150630235671997,
        0.3074594736099243
      ],
      "type": "VEC2"
    },
    {
      "bufferView": 1,
      "byteOffset": 52864,
      "componentType": 5126,
      "count": 80,
      "max": [
        0.9084937572479248,
        0.5800679326057434
      ],
      "min": [
        0.091506227850914,
        0.4199320673942566
      ],
      "type": "VEC2"
    },
    {
      "bufferView": 1,
      "byteOffset": 53504,
      "componentType": 5126,
      "count": 80,
      "max": [
        0.9599629640579224,
        0.9402132034301758
      ],
      "min": [
        0.08379118144512177,
        0.09163463115692139
      ],
      "type": "VEC2"
    },
    {
      "bufferView": 0,
      "byteOffset": 27768,
      "componentType": 5125,
      "count": 120,
      "type": "SCALAR"
    },
    {
      "bufferView": 2,
      "byteOffset": 54144,
      "componentType": 5126,
      "count": 4,
      "max": [
        261.23046875,
        -482.5992431640625,
        39.27735900878906
      ],
      "min": [
        -261.230224609375,
        -482.5992431640625,
        -41.713661193847656
      ],
      "type": "VEC3"
    },
    {
      "bufferView": 2,
      "byteOffset": 54192,
      "componentType": 5126,
      "count": 4,
      "max": [
        0.0,
        1.0,
        0.0
      ],
      "min": [
        0.0,
        1.0,
        0.0
      ],
      "type": "VEC3"
    },
    {
      "bufferView": 1,
      "byteOffset": 54144,
      "componentType": 5126,
      "count": 4,
      "max": [
        1.0000001192092896,
        0.5385514497756958
      ],
      "min": [
        1.1920928955078125e-07,
        0.04818451404571533
      ],
      "type": "VEC2"
    },
    {
      "bufferView": 1,
      "byteOffset": 54176,
      "componentType": 5126,
      "count": 4,
      "max": [
        0.6568516492843628,
        0.5288594961166382
      ],
      "min": [
        0.34314823150634766,
        0.4802296757698059
      ],
      "type": "VEC2"
    },
    {
      "bufferView": 1,
      "byteOffset": 54208,
      "componentType": 5126,
      "count": 4,
      "max": [
        0.9550608396530151,
        0.7979769706726074
      ],
      "min": [
        0.9237990379333496,
        0.6206616163253784
      ],
      "type": "VEC2"
    },
    {
      "bufferView": 0,
      "byteOffset": 28248,
      "componentType": 5125,
      "count": 6,
      "type": "SCALAR"
    }
  ],
  "asset": {
    "extras": {
      "author": "Inditrion Dradnon (https://sketchfab.com/dradnon)",
      "license": "CC-BY-4.0 (http://creativecommons.org/licenses/by/4.0/)",
      "source": "https://sketchfab.com/3d-models/modular-hallway-t-connector-type-01-a1057423a1614183b99a336a75aa1b80",
      "title": "Modular Hallway T-connector Type 01"
    },
    "generator": "Sketchfab-16.3.0",
    "version": "2.0"
  },
  "bufferViews": [
    {
      "buffer": 0,
      "byteLength": 28272,
      "name": "floatBufferViews",
      "target": 34963
    },
    {
      "buffer": 0,
      "byteLength": 54240,
      "byteOffset": 28272,
      "byteStride": 8,
      "name": "floatBufferViews",
      "target": 34962
    },
    {
      "buffer": 0,
      "byteLength": 54240,
      "byteOffset": 82512,
      "byteStride": 12,
      "name": "floatBufferViews",
      "target": 34962
    }
  ],
  "buffers": [
    {
      "byteLength": 136752,
      "uri": "scene.bin"
    }
  ],
  "extensionsUsed": [
    "KHR_materials_specular",
    "KHR_materials_emissive_strength"
  ],
  "images": [
    {
      "uri": "textures/Hulle_baseColor.jpeg"
    },
    {
      "uri": "textures/Hulle_metallicRoughness.png"
    },
    {
      "uri": "textures/Hulle_specularf0.png"
    },
    {
      "uri": "textures/Material__2142148966_emissive.jpeg"
    }
  ],
  "materials": [
    {
      "doubleSided": true,
      "extensions": {
        "KHR_materials_specular": {
          "specularColorFactor": [
            1.0,
            1.0,
            1.0
          ],
          "specularFactor": 1.0,
          "specularTexture": {
            "index": 2
          }
        }
      },
      "name": "Hulle",
      "occlusionTexture": {
        "index": 1
      },
      "pbrMetallicRoughness": {
        "baseColorTexture": {
          "index": 0
        },
        "metallicRoughnessTexture": {
          "index": 1
        }
      }
    },
    {
      "doubleSided": true,
      "emissiveFactor": [
        1.0,
        1.0,
        1.0
      ],
      "extensions": {
        "KHR_materials_emissive_strength": {
          "emissiveStrength": 10.0
        }
      },
      "name": "SG-LightW",
      "pbrMetallicRoughness": {
        "baseColorFactor": [
          0.215861,
          0.215861,
          0.215861,
          1.0
        ],
        "metallicFactor": 0.0,
        "roughnessFactor": 0.0
      }
    },
    {
      "doubleSided": true,
      "emissiveFactor": [
        1.0,
        1.0,
        1.0
      ],
      "emissiveTexture": {
        "index": 3
      },
      "extensions": {
        "KHR_materials_emissive_strength": {
          "emissiveStrength": 10.0
        }
      },
      "name": "Material__2142148966",
      "pbrMetallicRoughness": {
        "baseColorFactor": [
          0.0,
          0.0,
          0.0,
          1.0
        ],
        "metallicFactor": 0.0,
        "roughnessFactor": 0.0
      }
    }
  ],
  "meshes": [
    {
      "name": "Gang_T-Verbinder_Hulle_0",
      "primitives": [
        {
          "attributes": {
            "NORMAL": 1,
            "POSITION": 0,
            "TEXCOORD_0": 2,
            "TEXCOORD_1": 3,
            "TEXCOORD_2": 4
          },
          "indices": 5,
          "material": 0,
          "mode": 4
        }
      ]
    },
    {
      "name": "Gang_T-Verbinder_SG-LightW_0",
      "primitives": [
        {
          "attributes": {
            "NORMAL": 7,
            "POSITION": 6,
            "TEXCOORD_0": 8,
            "TEXCOORD_1": 9,
            "TEXCOORD_2": 10
          },
          "indices": 11,
          "material": 1,
          "mode": 4
        }
      ]
    },
    {
      "name": "Gang_T-Verbinder_Material__2142148966_0",
      "primitives": [
        {
          "attributes": {
            "NORMAL": 13,
            "POSITION": 12,
            "TEXCOORD_0": 14,
            "TEXCOORD_1": 15,
            "TEXCOORD_2": 16
          },
          "indices": 17,
          "material": 2,
          "mode": 4
        }
      ]
    }
  ],
  "nodes": [
    {
      "children": [
        1
      ],
      "matrix": [
        -0.9999967813491821,
        0.0025400600861757994,
        5.6400663832074635e-19,
        0.0,
        0.0,
        2.220446049250313e-16,
        -1.0,
        0.0,
        -0.0025400600861757994,
        -0.9999967813491821,
        -2.2204389024098206e-16,
        0.0,
        0.0,
        0.0,
        0.0,
        1.0
      ],
      "name": "Sketchfab_model"
    },
    {
      "children": [
        2
      ],
      "matrix": [
        0.009999999776482582,
        0.0,
        0.0,
        0.0,
        0.0,
        -0.009999999776482582,
        0.0,
        0.0,
        0.0,
        0.0,
        -0.009999999776482582,
        0.0,
        0.0,
        0.0,
        0.0,
        1.0
      ],
      "name": "fb3c60a92cbe4a83ba292ea06791b6eb.fbx"
    },
    {
      "children": [
        3
      ],
      "name": "RootNode"
    },
    {
      "children": [
        4,
        5,
        6
      ],
      "name": "Gang_T-Verbinder"
    },
    {
      "mesh": 0,
      "name": "Gang_T-Verbinder_Hulle_0"
    },
    {
      "mesh": 1,
      "name": "Gang_T-Verbinder_SG-LightW_0"
    },
    {
      "mesh": 2,
      "name": "Gang_T-Verbinder_Material__2142148966_0"
    }
  ],
  "samplers": [
    {
      "magFilter": 9729,
      "minFilter": 9987,
      "wrapS": 10497,
      "wrapT": 10497
    }
  ],
  "scene": 0,
  "scenes": [
    {
      "name": "Sketchfab_Scene",
      "nodes": [
        0
      ]
    }
  ],
  "textures": [
    {
      "sampler": 0,
      "source": 0
    },
    {
      "sampler": 0,
      "source": 1
    },
    {
      "sampler": 0,
      "source": 2
    },
    {
      "sampler": 0,
      "source": 3
    }
  ]
}
