{
	"asset":{
		"generator":"Khronos glTF Blender I/O v4.0.44",
		"version":"2.0"
	},
	"extensionsUsed":[
		"KHR_materials_specular",
		"KHR_materials_ior"
	],
	"scene":0,
	"scenes":[
		{
			"name":"Scene",
			"nodes":[
				0
			]
		}
	],
	"nodes":[
		{
			"mesh":0,
			"name":"Column_Large2"
		}
	],
	"materials":[
		{
			"doubleSided":true,
			"name":"MI_Trim_03",
			"normalTexture":{
				"index":0
			},
			"pbrMetallicRoughness":{
				"baseColorTexture":{
					"index":1
				},
				"metallicRoughnessTexture":{
					"index":2
				}
			}
		},
		{
			"doubleSided":true,
			"extensions":{
				"KHR_materials_specular":{
					"specularFactor":0
				},
				"KHR_materials_ior":{
					"ior":1.4500000476837158
				}
			},
			"name":"MI_Trim_01",
			"normalTexture":{
				"index":3
			},
			"pbrMetallicRoughness":{
				"baseColorTexture":{
					"index":4
				},
				"metallicRoughnessTexture":{
					"index":5
				}
			}
		},
		{
			"doubleSided":true,
			"name":"MI_Trim_02",
			"normalTexture":{
				"index":6
			},
			"pbrMetallicRoughness":{
				"baseColorTexture":{
					"index":7
				},
				"metallicRoughnessTexture":{
					"index":8
				}
			}
		}
	],
	"meshes":[
		{
			"name":"Cube",
			"primitives":[
				{
					"attributes":{
						"POSITION":0,
						"NORMAL":1,
						"TEXCOORD_0":2
					},
					"indices":3,
					"material":0
				},
				{
					"attributes":{
						"POSITION":4,
						"NORMAL":5,
						"TEXCOORD_0":6
					},
					"indices":7,
					"material":1
				},
				{
					"attributes":{
						"POSITION":8,
						"NORMAL":9,
						"TEXCOORD_0":10
					},
					"indices":11,
					"material":2
				}
			]
		}
	],
	"textures":[
		{
			"sampler":0,
			"source":0
		},
		{
			"sampler":0,
			"source":1
		},
		{
			"sampler":0,
			"source":2
		},
		{
			"sampler":0,
			"source":3
		},
		{
			"sampler":0,
			"source":4
		},
		{
			"sampler":0,
			"source":5
		},
		{
			"sampler":0,
			"source":6
		},
		{
			"sampler":0,
			"source":7
		},
		{
			"sampler":0,
			"source":8
		}
	],
	"images":[
		{
			"mimeType":"image/png",
			"name":"T_Trim_03_Normal",
			"uri":"T_Trim_03_Normal.png"
		},
		{
			"mimeType":"image/png",
			"name":"T_Trim_03_BaseColor",
			"uri":"T_Trim_03_BaseColor.png"
		},
		{
			"mimeType":"image/png",
			"name":"T_Trim_03_ORM",
			"uri":"T_Trim_03_ORM.png"
		},
		{
			"mimeType":"image/png",
			"name":"T_Trim_01_Normal",
			"uri":"T_Trim_01_Normal.png"
		},
		{
			"mimeType":"image/png",
			"name":"T_Trim_01_BaseColor_Red",
			"uri":"T_Trim_01_BaseColor_Red.png"
		},
		{
			"mimeType":"image/png",
			"name":"T_Trim_01_ORM",
			"uri":"T_Trim_01_ORM.png"
		},
		{
			"mimeType":"image/png",
			"name":"T_Trim_02_Normal",
			"uri":"T_Trim_02_Normal.png"
		},
		{
			"mimeType":"image/png",
			"name":"T_Trim_02_BaseColor_Red",
			"uri":"T_Trim_02_BaseColor_Red.png"
		},
		{
			"mimeType":"image/png",
			"name":"T_Trim_02_ORM",
			"uri":"T_Trim_02_ORM.png"
		}
	],
	"accessors":[
		{
			"bufferView":0,
			"componentType":5126,
			"count":163,
			"max":[
				0.5485261678695679,
				9.291701316833496,
				4.5843424797058105
			],
			"min":[
				-0.5485261678695679,
				0.28176257014274597,
				0.874963104724884
			],
			"type":"VEC3"
		},
		{
			"bufferView":1,
			"componentType":5126,
			"count":163,
			"type":"VEC3"
		},
		{
			"bufferView":2,
			"componentType":5126,
			"count":163,
			"type":"VEC2"
		},
		{
			"bufferView":3,
			"componentType":5123,
			"count":594,
			"type":"SCALAR"
		},
		{
			"bufferView":4,
			"componentType":5126,
			"count":221,
			"max":[
				0.5558256506919861,
				10.008508682250977,
				5.13854455947876
			],
			"min":[
				-0.5558256506919861,
				-0.012254997156560421,
				-0.01916683278977871
			],
			"type":"VEC3"
		},
		{
			"bufferView":5,
			"componentType":5126,
			"count":221,
			"type":"VEC3"
		},
		{
			"bufferView":6,
			"componentType":5126,
			"count":221,
			"type":"VEC2"
		},
		{
			"bufferView":7,
			"componentType":5123,
			"count":582,
			"type":"SCALAR"
		},
		{
			"bufferView":8,
			"componentType":5126,
			"count":337,
			"max":[
				0.5547388195991516,
				9.995896339416504,
				5.264495372772217
			],
			"min":[
				-0.5547388195991516,
				-0.0191524475812912,
				0.07248008251190186
			],
			"type":"VEC3"
		},
		{
			"bufferView":9,
			"componentType":5126,
			"count":337,
			"type":"VEC3"
		},
		{
			"bufferView":10,
			"componentType":5126,
			"count":337,
			"type":"VEC2"
		},
		{
			"bufferView":11,
			"componentType":5123,
			"count":804,
			"type":"SCALAR"
		}
	],
	"bufferViews":[
		{
			"buffer":0,
			"byteLength":1956,
			"byteOffset":0,
			"target":34962
		},
		{
			"buffer":0,
			"byteLength":1956,
			"byteOffset":1956,
			"target":34962
		},
		{
			"buffer":0,
			"byteLength":1304,
			"byteOffset":3912,
			"target":34962
		},
		{
			"buffer":0,
			"byteLength":1188,
			"byteOffset":5216,
			"target":34963
		},
		{
			"buffer":0,
			"byteLength":2652,
			"byteOffset":6404,
			"target":34962
		},
		{
			"buffer":0,
			"byteLength":2652,
			"byteOffset":9056,
			"target":34962
		},
		{
			"buffer":0,
			"byteLength":1768,
			"byteOffset":11708,
			"target":34962
		},
		{
			"buffer":0,
			"byteLength":1164,
			"byteOffset":13476,
			"target":34963
		},
		{
			"buffer":0,
			"byteLength":4044,
			"byteOffset":14640,
			"target":34962
		},
		{
			"buffer":0,
			"byteLength":4044,
			"byteOffset":18684,
			"target":34962
		},
		{
			"buffer":0,
			"byteLength":2696,
			"byteOffset":22728,
			"target":34962
		},
		{
			"buffer":0,
			"byteLength":1608,
			"byteOffset":25424,
			"target":34963
		}
	],
	"samplers":[
		{
			"magFilter":9729,
			"minFilter":9987
		}
	],
	"buffers":[
		{
			"byteLength":27032,
			"uri":"Column_Large2.bin"
		}
	]
}
