{
	"asset":{
		"generator":"Khronos glTF Blender I/O v4.0.44",
		"version":"2.0"
	},
	"extensionsUsed":[
		"KHR_materials_specular",
		"KHR_materials_ior"
	],
	"scene":0,
	"scenes":[
		{
			"name":"Scene",
			"nodes":[
				0
			]
		}
	],
	"nodes":[
		{
			"mesh":0,
			"name":"TopPadded_Incline_Curve_Round_Inner"
		}
	],
	"materials":[
		{
			"doubleSided":true,
			"extensions":{
				"KHR_materials_specular":{
					"specularFactor":0
				},
				"KHR_materials_ior":{
					"ior":1.4500000476837158
				}
			},
			"name":"MI_PaddedWall",
			"normalTexture":{
				"index":0
			},
			"pbrMetallicRoughness":{
				"baseColorTexture":{
					"index":1
				},
				"metallicRoughnessTexture":{
					"index":2
				}
			}
		},
		{
			"doubleSided":true,
			"name":"MI_Trim_02",
			"normalTexture":{
				"index":3
			},
			"pbrMetallicRoughness":{
				"baseColorTexture":{
					"index":4
				},
				"metallicRoughnessTexture":{
					"index":5
				}
			}
		}
	],
	"meshes":[
		{
			"name":"Plane.067",
			"primitives":[
				{
					"attributes":{
						"POSITION":0,
						"NORMAL":1,
						"TEXCOORD_0":2
					},
					"indices":3,
					"material":0
				},
				{
					"attributes":{
						"POSITION":4,
						"NORMAL":5,
						"TEXCOORD_0":6
					},
					"indices":7,
					"material":1
				}
			]
		}
	],
	"textures":[
		{
			"sampler":0,
			"source":0
		},
		{
			"sampler":0,
			"source":1
		},
		{
			"sampler":0,
			"source":2
		},
		{
			"sampler":0,
			"source":3
		},
		{
			"sampler":0,
			"source":4
		},
		{
			"sampler":0,
			"source":5
		}
	],
	"images":[
		{
			"mimeType":"image/png",
			"name":"T_PaddedWall_Normal",
			"uri":"T_PaddedWall_Normal.png"
		},
		{
			"mimeType":"image/png",
			"name":"T_PaddedWall_BaseColor",
			"uri":"T_PaddedWall_BaseColor.png"
		},
		{
			"mimeType":"image/png",
			"name":"T_PaddedWall_ORM",
			"uri":"T_PaddedWall_ORM.png"
		},
		{
			"mimeType":"image/png",
			"name":"T_Trim_02_Normal",
			"uri":"T_Trim_02_Normal.png"
		},
		{
			"mimeType":"image/png",
			"name":"T_Trim_02_BaseColor_Red",
			"uri":"T_Trim_02_BaseColor_Red.png"
		},
		{
			"mimeType":"image/png",
			"name":"T_Trim_02_ORM",
			"uri":"T_Trim_02_ORM.png"
		}
	],
	"accessors":[
		{
			"bufferView":0,
			"componentType":5126,
			"count":837,
			"max":[
				-0.001362600247375667,
				4.984519958496094,
				9.53736389419646e-07
			],
			"min":[
				-3.9989161491394043,
				3.0001564025878906,
				-3.9989144802093506
			],
			"type":"VEC3"
		},
		{
			"bufferView":1,
			"componentType":5126,
			"count":837,
			"type":"VEC3"
		},
		{
			"bufferView":2,
			"componentType":5126,
			"count":837,
			"type":"VEC2"
		},
		{
			"bufferView":3,
			"componentType":5123,
			"count":3258,
			"type":"SCALAR"
		},
		{
			"bufferView":4,
			"componentType":5126,
			"count":1273,
			"max":[
				-0.001362600247375667,
				5.004560947418213,
				9.72388420450443e-07
			],
			"min":[
				-4.029785633087158,
				3.0001564025878906,
				-4.029661655426025
			],
			"type":"VEC3"
		},
		{
			"bufferView":5,
			"componentType":5126,
			"count":1273,
			"type":"VEC3"
		},
		{
			"bufferView":6,
			"componentType":5126,
			"count":1273,
			"type":"VEC2"
		},
		{
			"bufferView":7,
			"componentType":5123,
			"count":3525,
			"type":"SCALAR"
		}
	],
	"bufferViews":[
		{
			"buffer":0,
			"byteLength":10044,
			"byteOffset":0,
			"target":34962
		},
		{
			"buffer":0,
			"byteLength":10044,
			"byteOffset":10044,
			"target":34962
		},
		{
			"buffer":0,
			"byteLength":6696,
			"byteOffset":20088,
			"target":34962
		},
		{
			"buffer":0,
			"byteLength":6516,
			"byteOffset":26784,
			"target":34963
		},
		{
			"buffer":0,
			"byteLength":15276,
			"byteOffset":33300,
			"target":34962
		},
		{
			"buffer":0,
			"byteLength":15276,
			"byteOffset":48576,
			"target":34962
		},
		{
			"buffer":0,
			"byteLength":10184,
			"byteOffset":63852,
			"target":34962
		},
		{
			"buffer":0,
			"byteLength":7050,
			"byteOffset":74036,
			"target":34963
		}
	],
	"samplers":[
		{
			"magFilter":9729,
			"minFilter":9987
		}
	],
	"buffers":[
		{
			"byteLength":81088,
			"uri":"TopPadded_Incline_Curve_Round_Inner.bin"
		}
	]
}
