{
	"asset":{
		"generator":"Khronos glTF Blender I/O v4.0.44",
		"version":"2.0"
	},
	"extensionsUsed":[
		"KHR_materials_specular",
		"KHR_materials_ior"
	],
	"scene":0,
	"scenes":[
		{
			"name":"Scene",
			"nodes":[
				0
			]
		}
	],
	"nodes":[
		{
			"mesh":0,
			"name":"Platform_Ramp2_2"
		}
	],
	"materials":[
		{
			"doubleSided":true,
			"extensions":{
				"KHR_materials_specular":{
					"specularFactor":0
				},
				"KHR_materials_ior":{
					"ior":1.4500000476837158
				}
			},
			"name":"MI_Trim_01",
			"normalTexture":{
				"index":0
			},
			"pbrMetallicRoughness":{
				"baseColorTexture":{
					"index":1
				},
				"metallicRoughnessTexture":{
					"index":2
				}
			}
		},
		{
			"doubleSided":true,
			"name":"MI_Trim_02",
			"normalTexture":{
				"index":3
			},
			"pbrMetallicRoughness":{
				"baseColorTexture":{
					"index":4
				},
				"metallicRoughnessTexture":{
					"index":5
				}
			}
		},
		{
			"doubleSided":true,
			"name":"M_Decal_White",
			"pbrMetallicRoughness":{
				"baseColorTexture":{
					"index":6
				},
				"metallicFactor":0,
				"roughnessFactor":0.5
			}
		}
	],
	"meshes":[
		{
			"name":"Cube.022",
			"primitives":[
				{
					"attributes":{
						"POSITION":0,
						"NORMAL":1,
						"TEXCOORD_0":2
					},
					"indices":3,
					"material":0
				},
				{
					"attributes":{
						"POSITION":4,
						"NORMAL":5,
						"TEXCOORD_0":6
					},
					"indices":7,
					"material":1
				},
				{
					"attributes":{
						"POSITION":8,
						"NORMAL":9,
						"TEXCOORD_0":10
					},
					"indices":11,
					"material":2
				}
			]
		}
	],
	"textures":[
		{
			"sampler":0,
			"source":0
		},
		{
			"sampler":0,
			"source":1
		},
		{
			"sampler":0,
			"source":2
		},
		{
			"sampler":0,
			"source":3
		},
		{
			"sampler":0,
			"source":4
		},
		{
			"sampler":0,
			"source":5
		},
		{
			"sampler":0,
			"source":6
		}
	],
	"images":[
		{
			"mimeType":"image/png",
			"name":"T_Trim_01_Normal",
			"uri":"T_Trim_01_Normal.png"
		},
		{
			"mimeType":"image/png",
			"name":"T_Trim_01_BaseColor_Red",
			"uri":"T_Trim_01_BaseColor_Red.png"
		},
		{
			"mimeType":"image/png",
			"name":"T_Trim_01_ORM",
			"uri":"T_Trim_01_ORM.png"
		},
		{
			"mimeType":"image/png",
			"name":"T_Trim_02_Normal",
			"uri":"T_Trim_02_Normal.png"
		},
		{
			"mimeType":"image/png",
			"name":"T_Trim_02_BaseColor_Red",
			"uri":"T_Trim_02_BaseColor_Red.png"
		},
		{
			"mimeType":"image/png",
			"name":"T_Trim_02_ORM",
			"uri":"T_Trim_02_ORM.png"
		},
		{
			"mimeType":"image/png",
			"name":"T_Decals",
			"uri":"T_Decals.png"
		}
	],
	"accessors":[
		{
			"bufferView":0,
			"componentType":5126,
			"count":55,
			"max":[
				1,
				1,
				1.90055251121521
			],
			"min":[
				-1,
				0,
				0
			],
			"type":"VEC3"
		},
		{
			"bufferView":1,
			"componentType":5126,
			"count":55,
			"type":"VEC3"
		},
		{
			"bufferView":2,
			"componentType":5126,
			"count":55,
			"type":"VEC2"
		},
		{
			"bufferView":3,
			"componentType":5123,
			"count":132,
			"type":"SCALAR"
		},
		{
			"bufferView":4,
			"componentType":5126,
			"count":20,
			"max":[
				1,
				0.04877243563532829,
				2
			],
			"min":[
				-1,
				0,
				1.9005522727966309
			],
			"type":"VEC3"
		},
		{
			"bufferView":5,
			"componentType":5126,
			"count":20,
			"type":"VEC3"
		},
		{
			"bufferView":6,
			"componentType":5126,
			"count":20,
			"type":"VEC2"
		},
		{
			"bufferView":7,
			"componentType":5123,
			"count":42,
			"type":"SCALAR"
		},
		{
			"bufferView":8,
			"componentType":5126,
			"count":8,
			"max":[
				0.06951753050088882,
				0.16640207171440125,
				1.7626229524612427
			],
			"min":[
				-0.06951753050088882,
				0.11895907670259476,
				1.666920781135559
			],
			"type":"VEC3"
		},
		{
			"bufferView":9,
			"componentType":5126,
			"count":8,
			"type":"VEC3"
		},
		{
			"bufferView":10,
			"componentType":5126,
			"count":8,
			"type":"VEC2"
		},
		{
			"bufferView":11,
			"componentType":5123,
			"count":12,
			"type":"SCALAR"
		}
	],
	"bufferViews":[
		{
			"buffer":0,
			"byteLength":660,
			"byteOffset":0,
			"target":34962
		},
		{
			"buffer":0,
			"byteLength":660,
			"byteOffset":660,
			"target":34962
		},
		{
			"buffer":0,
			"byteLength":440,
			"byteOffset":1320,
			"target":34962
		},
		{
			"buffer":0,
			"byteLength":264,
			"byteOffset":1760,
			"target":34963
		},
		{
			"buffer":0,
			"byteLength":240,
			"byteOffset":2024,
			"target":34962
		},
		{
			"buffer":0,
			"byteLength":240,
			"byteOffset":2264,
			"target":34962
		},
		{
			"buffer":0,
			"byteLength":160,
			"byteOffset":2504,
			"target":34962
		},
		{
			"buffer":0,
			"byteLength":84,
			"byteOffset":2664,
			"target":34963
		},
		{
			"buffer":0,
			"byteLength":96,
			"byteOffset":2748,
			"target":34962
		},
		{
			"buffer":0,
			"byteLength":96,
			"byteOffset":2844,
			"target":34962
		},
		{
			"buffer":0,
			"byteLength":64,
			"byteOffset":2940,
			"target":34962
		},
		{
			"buffer":0,
			"byteLength":24,
			"byteOffset":3004,
			"target":34963
		}
	],
	"samplers":[
		{
			"magFilter":9729,
			"minFilter":9987
		}
	],
	"buffers":[
		{
			"byteLength":3028,
			"uri":"Platform_Ramp2_2.bin"
		}
	]
}
